<?xml version="1.0" encoding="UTF-8" standalone="no"?>
<!DOCTYPE svg PUBLIC "-//W3C//DTD SVG 1.1//EN"
 "http://www.w3.org/Graphics/SVG/1.1/DTD/svg11.dtd">
<!-- Generated by graphviz version 2.38.0 (20140413.2041)
 -->
<!-- Title: tinybgfx_helloworld Pages: 1 -->
<svg width="1319pt" height="264pt"
 viewBox="0.00 0.00 1318.50 264.00" xmlns="http://www.w3.org/2000/svg" xmlns:xlink="http://www.w3.org/1999/xlink">
<g id="graph0" class="graph" transform="scale(1 1) rotate(0) translate(4 260)">
<title>tinybgfx_helloworld</title>
<polygon fill="white" stroke="none" points="-4,4 -4,-260 1314.5,-260 1314.5,4 -4,4"/>
<!-- Hello -->
<g id="node1" class="node"><title>Hello</title>
<polygon fill="none" stroke="black" points="497,-0.5 497,-36.5 551,-36.5 551,-0.5 497,-0.5"/>
<text text-anchor="middle" x="524" y="-14.8" font-family="Times New Roman,serif" font-size="14.00">Hello</text>
</g>
<!-- Renderer -->
<g id="node2" class="node"><title>Renderer</title>
<polygon fill="none" stroke="black" points="261,-73.5 261,-109.5 329,-109.5 329,-73.5 261,-73.5"/>
<text text-anchor="middle" x="295" y="-87.8" font-family="Times New Roman,serif" font-size="14.00">Renderer</text>
</g>
<!-- Hello&#45;&gt;Renderer -->
<g id="edge1" class="edge"><title>Hello&#45;&gt;Renderer</title>
<path fill="none" stroke="black" d="M496.831,-27.9234C457.868,-40.0037 385.688,-62.3828 339.038,-76.8464"/>
<polygon fill="black" stroke="black" points="337.719,-73.5907 329.204,-79.8952 339.792,-80.2767 337.719,-73.5907"/>
</g>
<!-- ImagePharse -->
<g id="node8" class="node"><title>ImagePharse</title>
<polygon fill="none" stroke="black" points="435,-73.5 435,-109.5 523,-109.5 523,-73.5 435,-73.5"/>
<text text-anchor="middle" x="479" y="-87.8" font-family="Times New Roman,serif" font-size="14.00">ImagePharse</text>
</g>
<!-- Hello&#45;&gt;ImagePharse -->
<g id="edge7" class="edge"><title>Hello&#45;&gt;ImagePharse</title>
<path fill="none" stroke="black" d="M513.107,-36.6871C507.745,-45.1466 501.173,-55.5165 495.233,-64.8876"/>
<polygon fill="black" stroke="black" points="492.19,-63.1511 489.793,-73.4712 498.103,-66.8984 492.19,-63.1511"/>
</g>
<!-- bx -->
<g id="node10" class="node"><title>bx</title>
<polygon fill="none" stroke="black" points="542,-73.5 542,-109.5 596,-109.5 596,-73.5 542,-73.5"/>
<text text-anchor="middle" x="569" y="-87.8" font-family="Times New Roman,serif" font-size="14.00">bx</text>
</g>
<!-- Hello&#45;&gt;bx -->
<g id="edge9" class="edge"><title>Hello&#45;&gt;bx</title>
<path fill="none" stroke="black" d="M534.893,-36.6871C540.255,-45.1466 546.827,-55.5165 552.767,-64.8876"/>
<polygon fill="black" stroke="black" points="549.897,-66.8984 558.207,-73.4712 555.81,-63.1511 549.897,-66.8984"/>
</g>
<!-- others -->
<g id="node11" class="node"><title>others</title>
<polygon fill="none" stroke="black" points="877,-73.5 877,-109.5 931,-109.5 931,-73.5 877,-73.5"/>
<text text-anchor="middle" x="904" y="-87.8" font-family="Times New Roman,serif" font-size="14.00">others</text>
</g>
<!-- Hello&#45;&gt;others -->
<g id="edge10" class="edge"><title>Hello&#45;&gt;others</title>
<path fill="none" stroke="black" d="M551.024,-24.5492C617.744,-37.0154 790.397,-69.2741 866.746,-83.5395"/>
<polygon fill="black" stroke="black" points="866.387,-87.0328 876.86,-85.429 867.672,-80.1518 866.387,-87.0328"/>
</g>
<!-- debug_renderdoc -->
<g id="node3" class="node"><title>debug_renderdoc</title>
<polygon fill="none" stroke="black" points="0,-146.5 0,-182.5 116,-182.5 116,-146.5 0,-146.5"/>
<text text-anchor="middle" x="58" y="-160.8" font-family="Times New Roman,serif" font-size="14.00">debug_renderdoc</text>
</g>
<!-- Renderer&#45;&gt;debug_renderdoc -->
<g id="edge2" class="edge"><title>Renderer&#45;&gt;debug_renderdoc</title>
<path fill="none" stroke="black" d="M260.791,-102.748C225.396,-113.352 169.199,-130.187 124.93,-143.449"/>
<polygon fill="black" stroke="black" points="123.68,-140.17 115.105,-146.393 125.689,-146.876 123.68,-140.17"/>
</g>
<!-- glcontext -->
<g id="node4" class="node"><title>glcontext</title>
<polygon fill="none" stroke="black" points="134,-146.5 134,-182.5 202,-182.5 202,-146.5 134,-146.5"/>
<text text-anchor="middle" x="168" y="-160.8" font-family="Times New Roman,serif" font-size="14.00">glcontext</text>
</g>
<!-- Renderer&#45;&gt;glcontext -->
<g id="edge3" class="edge"><title>Renderer&#45;&gt;glcontext</title>
<path fill="none" stroke="black" d="M264.58,-109.506C247.427,-119.096 225.806,-131.183 207.372,-141.489"/>
<polygon fill="black" stroke="black" points="205.632,-138.452 198.612,-146.386 209.048,-144.562 205.632,-138.452"/>
</g>
<!-- glimports -->
<g id="node5" class="node"><title>glimports</title>
<polygon fill="none" stroke="black" points="220.5,-146.5 220.5,-182.5 289.5,-182.5 289.5,-146.5 220.5,-146.5"/>
<text text-anchor="middle" x="255" y="-160.8" font-family="Times New Roman,serif" font-size="14.00">glimports</text>
</g>
<!-- Renderer&#45;&gt;glimports -->
<g id="edge4" class="edge"><title>Renderer&#45;&gt;glimports</title>
<path fill="none" stroke="black" d="M285.317,-109.687C280.6,-118.059 274.829,-128.303 269.593,-137.597"/>
<polygon fill="black" stroke="black" points="266.453,-136.041 264.594,-146.471 272.552,-139.477 266.453,-136.041"/>
</g>
<!-- nvapi -->
<g id="node6" class="node"><title>nvapi</title>
<polygon fill="none" stroke="black" points="308,-146.5 308,-182.5 362,-182.5 362,-146.5 308,-146.5"/>
<text text-anchor="middle" x="335" y="-160.8" font-family="Times New Roman,serif" font-size="14.00">nvapi</text>
</g>
<!-- Renderer&#45;&gt;nvapi -->
<g id="edge5" class="edge"><title>Renderer&#45;&gt;nvapi</title>
<path fill="none" stroke="black" d="M304.683,-109.687C309.4,-118.059 315.171,-128.303 320.407,-137.597"/>
<polygon fill="black" stroke="black" points="317.448,-139.477 325.406,-146.471 323.547,-136.041 317.448,-139.477"/>
</g>
<!-- dxgi -->
<g id="node7" class="node"><title>dxgi</title>
<polygon fill="none" stroke="black" points="380,-146.5 380,-182.5 434,-182.5 434,-146.5 380,-146.5"/>
<text text-anchor="middle" x="407" y="-160.8" font-family="Times New Roman,serif" font-size="14.00">dxgi</text>
</g>
<!-- Renderer&#45;&gt;dxgi -->
<g id="edge6" class="edge"><title>Renderer&#45;&gt;dxgi</title>
<path fill="none" stroke="black" d="M321.827,-109.506C336.679,-118.921 355.329,-130.745 371.389,-140.925"/>
<polygon fill="black" stroke="black" points="369.684,-143.988 380.004,-146.386 373.432,-138.076 369.684,-143.988"/>
</g>
<!-- rng -->
<g id="node9" class="node"><title>rng</title>
<polygon fill="none" stroke="black" points="452,-146.5 452,-182.5 506,-182.5 506,-146.5 452,-146.5"/>
<text text-anchor="middle" x="479" y="-160.8" font-family="Times New Roman,serif" font-size="14.00">rng</text>
</g>
<!-- ImagePharse&#45;&gt;rng -->
<g id="edge8" class="edge"><title>ImagePharse&#45;&gt;rng</title>
<path fill="none" stroke="black" d="M479,-109.687C479,-117.711 479,-127.453 479,-136.431"/>
<polygon fill="black" stroke="black" points="475.5,-136.471 479,-146.471 482.5,-136.471 475.5,-136.471"/>
</g>
<!-- amalgamated -->
<g id="node23" class="node"><title>amalgamated</title>
<polygon fill="none" stroke="black" points="524.5,-146.5 524.5,-182.5 613.5,-182.5 613.5,-146.5 524.5,-146.5"/>
<text text-anchor="middle" x="569" y="-160.8" font-family="Times New Roman,serif" font-size="14.00">amalgamated</text>
</g>
<!-- bx&#45;&gt;amalgamated -->
<g id="edge22" class="edge"><title>bx&#45;&gt;amalgamated</title>
<path fill="none" stroke="black" d="M569,-109.687C569,-117.711 569,-127.453 569,-136.431"/>
<polygon fill="black" stroke="black" points="565.5,-136.471 569,-146.471 572.5,-136.471 565.5,-136.471"/>
</g>
<!-- easing -->
<g id="node12" class="node"><title>easing</title>
<polygon fill="none" stroke="black" points="632,-146.5 632,-182.5 686,-182.5 686,-146.5 632,-146.5"/>
<text text-anchor="middle" x="659" y="-160.8" font-family="Times New Roman,serif" font-size="14.00">easing</text>
</g>
<!-- others&#45;&gt;easing -->
<g id="edge11" class="edge"><title>others&#45;&gt;easing</title>
<path fill="none" stroke="black" d="M876.913,-97.7468C836.739,-105.911 759.296,-123.126 696,-146 695.9,-146.036 695.799,-146.073 695.699,-146.109"/>
<polygon fill="black" stroke="black" points="694.208,-142.936 686.233,-149.911 696.817,-149.432 694.208,-142.936"/>
</g>
<!-- process -->
<g id="node13" class="node"><title>process</title>
<polygon fill="none" stroke="black" points="704.5,-146.5 704.5,-182.5 765.5,-182.5 765.5,-146.5 704.5,-146.5"/>
<text text-anchor="middle" x="735" y="-160.8" font-family="Times New Roman,serif" font-size="14.00">process</text>
</g>
<!-- others&#45;&gt;process -->
<g id="edge12" class="edge"><title>others&#45;&gt;process</title>
<path fill="none" stroke="black" d="M876.756,-103.621C850.604,-114.338 810.019,-131.079 775,-146 774.904,-146.041 774.808,-146.082 774.712,-146.123"/>
<polygon fill="black" stroke="black" points="773.353,-142.897 765.549,-150.063 776.118,-149.328 773.353,-142.897"/>
</g>
<!-- maputil -->
<g id="node14" class="node"><title>maputil</title>
<polygon fill="none" stroke="black" points="783.5,-146.5 783.5,-182.5 840.5,-182.5 840.5,-146.5 783.5,-146.5"/>
<text text-anchor="middle" x="812" y="-160.8" font-family="Times New Roman,serif" font-size="14.00">maputil</text>
</g>
<!-- others&#45;&gt;maputil -->
<g id="edge13" class="edge"><title>others&#45;&gt;maputil</title>
<path fill="none" stroke="black" d="M881.729,-109.687C869.864,-118.844 855.097,-130.24 842.212,-140.184"/>
<polygon fill="black" stroke="black" points="839.844,-137.591 834.066,-146.471 844.121,-143.132 839.844,-137.591"/>
</g>
<!-- commandline -->
<g id="node15" class="node"><title>commandline</title>
<polygon fill="none" stroke="black" points="858.5,-146.5 858.5,-182.5 949.5,-182.5 949.5,-146.5 858.5,-146.5"/>
<text text-anchor="middle" x="904" y="-160.8" font-family="Times New Roman,serif" font-size="14.00">commandline</text>
</g>
<!-- others&#45;&gt;commandline -->
<g id="edge14" class="edge"><title>others&#45;&gt;commandline</title>
<path fill="none" stroke="black" d="M904,-109.687C904,-117.711 904,-127.453 904,-136.431"/>
<polygon fill="black" stroke="black" points="900.5,-136.471 904,-146.471 907.5,-136.471 900.5,-136.471"/>
</g>
<!-- settings -->
<g id="node16" class="node"><title>settings</title>
<polygon fill="none" stroke="black" points="967.5,-146.5 967.5,-182.5 1026.5,-182.5 1026.5,-146.5 967.5,-146.5"/>
<text text-anchor="middle" x="997" y="-160.8" font-family="Times New Roman,serif" font-size="14.00">settings</text>
</g>
<!-- others&#45;&gt;settings -->
<g id="edge15" class="edge"><title>others&#45;&gt;settings</title>
<path fill="none" stroke="black" d="M926.513,-109.687C938.507,-118.844 953.434,-130.24 966.46,-140.184"/>
<polygon fill="black" stroke="black" points="964.622,-143.185 974.695,-146.471 968.87,-137.621 964.622,-143.185"/>
</g>
<!-- url -->
<g id="node17" class="node"><title>url</title>
<polygon fill="none" stroke="black" points="1045,-146.5 1045,-182.5 1099,-182.5 1099,-146.5 1045,-146.5"/>
<text text-anchor="middle" x="1072" y="-160.8" font-family="Times New Roman,serif" font-size="14.00">url</text>
</g>
<!-- others&#45;&gt;url -->
<g id="edge16" class="edge"><title>others&#45;&gt;url</title>
<path fill="none" stroke="black" d="M931.021,-102.836C956.025,-112.535 994.38,-127.75 1035.8,-146.041"/>
<polygon fill="black" stroke="black" points="1034.41,-149.251 1044.96,-150.116 1037.25,-142.855 1034.41,-149.251"/>
</g>
<!-- simd_last -->
<g id="node18" class="node"><title>simd_last</title>
<polygon fill="none" stroke="black" points="1117,-146.5 1117,-182.5 1187,-182.5 1187,-146.5 1117,-146.5"/>
<text text-anchor="middle" x="1152" y="-160.8" font-family="Times New Roman,serif" font-size="14.00">simd_last</text>
</g>
<!-- others&#45;&gt;simd_last -->
<g id="edge17" class="edge"><title>others&#45;&gt;simd_last</title>
<path fill="none" stroke="black" d="M931.036,-98.4802C968.621,-107.032 1038.88,-123.878 1107,-145.853"/>
<polygon fill="black" stroke="black" points="1106,-149.209 1116.59,-148.988 1108.18,-142.555 1106,-149.209"/>
</g>
<!-- crtnone -->
<g id="node22" class="node"><title>crtnone</title>
<polygon fill="none" stroke="black" points="1205.5,-146.5 1205.5,-182.5 1264.5,-182.5 1264.5,-146.5 1205.5,-146.5"/>
<text text-anchor="middle" x="1235" y="-160.8" font-family="Times New Roman,serif" font-size="14.00">crtnone</text>
</g>
<!-- others&#45;&gt;crtnone -->
<g id="edge21" class="edge"><title>others&#45;&gt;crtnone</title>
<path fill="none" stroke="black" d="M931.092,-95.259C983.286,-101.054 1101.02,-116.463 1196,-146 1196.1,-146.03 1196.19,-146.061 1196.29,-146.091"/>
<polygon fill="black" stroke="black" points="1194.88,-149.304 1205.48,-149.368 1197.23,-142.711 1194.88,-149.304"/>
</g>
<!-- simd128_langext -->
<g id="node19" class="node"><title>simd128_langext</title>
<polygon fill="none" stroke="black" points="975,-219.5 975,-255.5 1085,-255.5 1085,-219.5 975,-219.5"/>
<text text-anchor="middle" x="1030" y="-233.8" font-family="Times New Roman,serif" font-size="14.00">simd128_langext</text>
</g>
<!-- simd_last&#45;&gt;simd128_langext -->
<g id="edge18" class="edge"><title>simd_last&#45;&gt;simd128_langext</title>
<path fill="none" stroke="black" d="M1122.78,-182.506C1106.45,-192.009 1085.91,-203.964 1068.31,-214.208"/>
<polygon fill="black" stroke="black" points="1066.29,-211.331 1059.41,-219.386 1069.81,-217.382 1066.29,-211.331"/>
</g>
<!-- simd128_neon -->
<g id="node20" class="node"><title>simd128_neon</title>
<polygon fill="none" stroke="black" points="1103,-219.5 1103,-255.5 1201,-255.5 1201,-219.5 1103,-219.5"/>
<text text-anchor="middle" x="1152" y="-233.8" font-family="Times New Roman,serif" font-size="14.00">simd128_neon</text>
</g>
<!-- simd_last&#45;&gt;simd128_neon -->
<g id="edge19" class="edge"><title>simd_last&#45;&gt;simd128_neon</title>
<path fill="none" stroke="black" d="M1152,-182.687C1152,-190.711 1152,-200.453 1152,-209.431"/>
<polygon fill="black" stroke="black" points="1148.5,-209.471 1152,-219.471 1155.5,-209.471 1148.5,-209.471"/>
</g>
<!-- simd256_avx -->
<g id="node21" class="node"><title>simd256_avx</title>
<polygon fill="none" stroke="black" points="1219.5,-219.5 1219.5,-255.5 1310.5,-255.5 1310.5,-219.5 1219.5,-219.5"/>
<text text-anchor="middle" x="1265" y="-233.8" font-family="Times New Roman,serif" font-size="14.00">simd256_avx</text>
</g>
<!-- simd_last&#45;&gt;simd256_avx -->
<g id="edge20" class="edge"><title>simd_last&#45;&gt;simd256_avx</title>
<path fill="none" stroke="black" d="M1179.07,-182.506C1194.05,-191.921 1212.87,-203.745 1229.07,-213.925"/>
<polygon fill="black" stroke="black" points="1227.43,-217.03 1237.76,-219.386 1231.16,-211.103 1227.43,-217.03"/>
</g>
<!-- dtoa -->
<g id="node24" class="node"><title>dtoa</title>
<polygon fill="none" stroke="black" points="542,-219.5 542,-255.5 596,-255.5 596,-219.5 542,-219.5"/>
<text text-anchor="middle" x="569" y="-233.8" font-family="Times New Roman,serif" font-size="14.00">dtoa</text>
</g>
<!-- amalgamated&#45;&gt;dtoa -->
<g id="edge23" class="edge"><title>amalgamated&#45;&gt;dtoa</title>
<path fill="none" stroke="black" d="M569,-182.687C569,-190.711 569,-200.453 569,-209.431"/>
<polygon fill="black" stroke="black" points="565.5,-209.471 569,-219.471 572.5,-209.471 565.5,-209.471"/>
</g>
</g>
</svg>
