<?xml version="1.0" encoding="UTF-8" standalone="no"?>
<!DOCTYPE svg PUBLIC "-//W3C//DTD SVG 1.1//EN"
 "http://www.w3.org/Graphics/SVG/1.1/DTD/svg11.dtd">
<!-- Generated by graphviz version 2.38.0 (20140413.2041)
 -->
<!-- Title: tinybgfx_helloworld Pages: 1 -->
<svg width="442pt" height="191pt"
 viewBox="0.00 0.00 442.00 191.00" xmlns="http://www.w3.org/2000/svg" xmlns:xlink="http://www.w3.org/1999/xlink">
<g id="graph0" class="graph" transform="scale(1 1) rotate(0) translate(4 187)">
<title>tinybgfx_helloworld</title>
<polygon fill="white" stroke="none" points="-4,4 -4,-187 438,-187 438,4 -4,4"/>
<!-- Hello -->
<g id="node1" class="node"><title>Hello</title>
<polygon fill="none" stroke="black" points="228,-0.5 228,-36.5 282,-36.5 282,-0.5 228,-0.5"/>
<text text-anchor="middle" x="255" y="-14.8" font-family="Times New Roman,serif" font-size="14.00">Hello</text>
</g>
<!-- Renderer -->
<g id="node2" class="node"><title>Renderer</title>
<polygon fill="none" stroke="black" points="221,-73.5 221,-109.5 289,-109.5 289,-73.5 221,-73.5"/>
<text text-anchor="middle" x="255" y="-87.8" font-family="Times New Roman,serif" font-size="14.00">Renderer</text>
</g>
<!-- Hello&#45;&gt;Renderer -->
<g id="edge1" class="edge"><title>Hello&#45;&gt;Renderer</title>
<path fill="none" stroke="black" d="M255,-36.6871C255,-44.7105 255,-54.4525 255,-63.4309"/>
<polygon fill="black" stroke="black" points="251.5,-63.4711 255,-73.4712 258.5,-63.4712 251.5,-63.4711"/>
</g>
<!-- debug_renderdoc -->
<g id="node3" class="node"><title>debug_renderdoc</title>
<polygon fill="none" stroke="black" points="0,-146.5 0,-182.5 116,-182.5 116,-146.5 0,-146.5"/>
<text text-anchor="middle" x="58" y="-160.8" font-family="Times New Roman,serif" font-size="14.00">debug_renderdoc</text>
</g>
<!-- Renderer&#45;&gt;debug_renderdoc -->
<g id="edge2" class="edge"><title>Renderer&#45;&gt;debug_renderdoc</title>
<path fill="none" stroke="black" d="M220.685,-104.867C191.464,-115.399 148.893,-130.742 114.628,-143.091"/>
<polygon fill="black" stroke="black" points="113.423,-139.805 105.202,-146.488 115.796,-146.39 113.423,-139.805"/>
</g>
<!-- glcontext -->
<g id="node4" class="node"><title>glcontext</title>
<polygon fill="none" stroke="black" points="134,-146.5 134,-182.5 202,-182.5 202,-146.5 134,-146.5"/>
<text text-anchor="middle" x="168" y="-160.8" font-family="Times New Roman,serif" font-size="14.00">glcontext</text>
</g>
<!-- Renderer&#45;&gt;glcontext -->
<g id="edge3" class="edge"><title>Renderer&#45;&gt;glcontext</title>
<path fill="none" stroke="black" d="M233.94,-109.687C222.826,-118.757 209.021,-130.023 196.919,-139.9"/>
<polygon fill="black" stroke="black" points="194.401,-137.437 188.866,-146.471 198.827,-142.86 194.401,-137.437"/>
</g>
<!-- glimports -->
<g id="node5" class="node"><title>glimports</title>
<polygon fill="none" stroke="black" points="220.5,-146.5 220.5,-182.5 289.5,-182.5 289.5,-146.5 220.5,-146.5"/>
<text text-anchor="middle" x="255" y="-160.8" font-family="Times New Roman,serif" font-size="14.00">glimports</text>
</g>
<!-- Renderer&#45;&gt;glimports -->
<g id="edge4" class="edge"><title>Renderer&#45;&gt;glimports</title>
<path fill="none" stroke="black" d="M255,-109.687C255,-117.711 255,-127.453 255,-136.431"/>
<polygon fill="black" stroke="black" points="251.5,-136.471 255,-146.471 258.5,-136.471 251.5,-136.471"/>
</g>
<!-- nvapi -->
<g id="node6" class="node"><title>nvapi</title>
<polygon fill="none" stroke="black" points="308,-146.5 308,-182.5 362,-182.5 362,-146.5 308,-146.5"/>
<text text-anchor="middle" x="335" y="-160.8" font-family="Times New Roman,serif" font-size="14.00">nvapi</text>
</g>
<!-- Renderer&#45;&gt;nvapi -->
<g id="edge5" class="edge"><title>Renderer&#45;&gt;nvapi</title>
<path fill="none" stroke="black" d="M274.366,-109.687C284.487,-118.67 297.036,-129.807 308.087,-139.614"/>
<polygon fill="black" stroke="black" points="306.01,-142.451 315.813,-146.471 310.657,-137.216 306.01,-142.451"/>
</g>
<!-- dxgi -->
<g id="node7" class="node"><title>dxgi</title>
<polygon fill="none" stroke="black" points="380,-146.5 380,-182.5 434,-182.5 434,-146.5 380,-146.5"/>
<text text-anchor="middle" x="407" y="-160.8" font-family="Times New Roman,serif" font-size="14.00">dxgi</text>
</g>
<!-- Renderer&#45;&gt;dxgi -->
<g id="edge6" class="edge"><title>Renderer&#45;&gt;dxgi</title>
<path fill="none" stroke="black" d="M289.093,-108.003C310.26,-117.678 338.223,-130.547 370.642,-145.868"/>
<polygon fill="black" stroke="black" points="369.366,-149.137 379.902,-150.254 372.362,-142.811 369.366,-149.137"/>
</g>
</g>
</svg>
