<?xml version="1.0" encoding="UTF-8" standalone="no"?>
<!DOCTYPE svg PUBLIC "-//W3C//DTD SVG 1.1//EN"
 "http://www.w3.org/Graphics/SVG/1.1/DTD/svg11.dtd">
<!-- Generated by graphviz version 2.38.0 (20140413.2041)
 -->
<!-- Title: TTSFML_System Pages: 1 -->
<svg width="485pt" height="702pt"
 viewBox="0.00 0.00 484.50 702.00" xmlns="http://www.w3.org/2000/svg" xmlns:xlink="http://www.w3.org/1999/xlink">
<g id="graph0" class="graph" transform="scale(1 1) rotate(0) translate(4 698)">
<title>TTSFML_System</title>
<polygon fill="white" stroke="none" points="-4,4 -4,-698 480.5,-698 480.5,4 -4,4"/>
<!-- bgfx -->
<g id="node1" class="node"><title>bgfx</title>
<polygon fill="none" stroke="black" points="79,-0.5 79,-36.5 133,-36.5 133,-0.5 79,-0.5"/>
<text text-anchor="middle" x="106" y="-14.8" font-family="Times New Roman,serif" font-size="14.00">bgfx</text>
</g>
<!-- defines -->
<g id="node2" class="node"><title>defines</title>
<polygon fill="none" stroke="black" points="0,-73.5 0,-109.5 56,-109.5 56,-73.5 0,-73.5"/>
<text text-anchor="middle" x="28" y="-87.8" font-family="Times New Roman,serif" font-size="14.00">defines</text>
</g>
<!-- bgfx&#45;&gt;defines -->
<g id="edge1" class="edge"><title>bgfx&#45;&gt;defines</title>
<path fill="none" stroke="black" d="M87.1184,-36.6871C77.2501,-45.6698 65.0152,-56.8067 54.2406,-66.6144"/>
<polygon fill="black" stroke="black" points="51.7469,-64.1514 46.7077,-73.4712 56.4589,-69.328 51.7469,-64.1514"/>
</g>
<!-- platform -->
<g id="node3" class="node"><title>platform</title>
<polygon fill="none" stroke="black" points="74,-73.5 74,-109.5 138,-109.5 138,-73.5 74,-73.5"/>
<text text-anchor="middle" x="106" y="-87.8" font-family="Times New Roman,serif" font-size="14.00">platform</text>
</g>
<!-- bgfx&#45;&gt;platform -->
<g id="edge2" class="edge"><title>bgfx&#45;&gt;platform</title>
<path fill="none" stroke="black" d="M106,-36.6871C106,-44.7105 106,-54.4525 106,-63.4309"/>
<polygon fill="black" stroke="black" points="102.5,-63.4711 106,-73.4712 109.5,-63.4712 102.5,-63.4711"/>
</g>
<!-- embedded_shader -->
<g id="node4" class="node"><title>embedded_shader</title>
<polygon fill="none" stroke="black" points="156.5,-73.5 156.5,-109.5 275.5,-109.5 275.5,-73.5 156.5,-73.5"/>
<text text-anchor="middle" x="216" y="-87.8" font-family="Times New Roman,serif" font-size="14.00">embedded_shader</text>
</g>
<!-- bgfx&#45;&gt;embedded_shader -->
<g id="edge3" class="edge"><title>bgfx&#45;&gt;embedded_shader</title>
<path fill="none" stroke="black" d="M132.348,-36.5063C146.935,-45.9215 165.252,-57.7446 181.025,-67.9252"/>
<polygon fill="black" stroke="black" points="179.186,-70.904 189.486,-73.3864 182.982,-65.0227 179.186,-70.904"/>
</g>
<!-- macros -->
<g id="node5" class="node"><title>macros</title>
<polygon fill="none" stroke="black" points="187,-146.5 187,-182.5 245,-182.5 245,-146.5 187,-146.5"/>
<text text-anchor="middle" x="216" y="-160.8" font-family="Times New Roman,serif" font-size="14.00">macros</text>
</g>
<!-- embedded_shader&#45;&gt;macros -->
<g id="edge4" class="edge"><title>embedded_shader&#45;&gt;macros</title>
<path fill="none" stroke="black" d="M216,-109.687C216,-117.711 216,-127.453 216,-136.431"/>
<polygon fill="black" stroke="black" points="212.5,-136.471 216,-146.471 219.5,-136.471 212.5,-136.471"/>
</g>
<!-- bx -->
<g id="node6" class="node"><title>bx</title>
<polygon fill="none" stroke="black" points="189,-219.5 189,-255.5 243,-255.5 243,-219.5 189,-219.5"/>
<text text-anchor="middle" x="216" y="-233.8" font-family="Times New Roman,serif" font-size="14.00">bx</text>
</g>
<!-- macros&#45;&gt;bx -->
<g id="edge5" class="edge"><title>macros&#45;&gt;bx</title>
<path fill="none" stroke="black" d="M216,-182.687C216,-190.711 216,-200.453 216,-209.431"/>
<polygon fill="black" stroke="black" points="212.5,-209.471 216,-219.471 219.5,-209.471 212.5,-209.471"/>
</g>
<!-- debug -->
<g id="node7" class="node"><title>debug</title>
<polygon fill="none" stroke="black" points="153,-292.5 153,-328.5 207,-328.5 207,-292.5 153,-292.5"/>
<text text-anchor="middle" x="180" y="-306.8" font-family="Times New Roman,serif" font-size="14.00">debug</text>
</g>
<!-- bx&#45;&gt;debug -->
<g id="edge6" class="edge"><title>bx&#45;&gt;debug</title>
<path fill="none" stroke="black" d="M207.285,-255.687C203.085,-263.972 197.955,-274.09 193.281,-283.307"/>
<polygon fill="black" stroke="black" points="190.035,-281.969 188.634,-292.471 196.278,-285.135 190.035,-281.969"/>
</g>
<!-- config -->
<g id="node8" class="node"><title>config</title>
<polygon fill="none" stroke="black" points="225,-292.5 225,-328.5 279,-328.5 279,-292.5 225,-292.5"/>
<text text-anchor="middle" x="252" y="-306.8" font-family="Times New Roman,serif" font-size="14.00">config</text>
</g>
<!-- bx&#45;&gt;config -->
<g id="edge7" class="edge"><title>bx&#45;&gt;config</title>
<path fill="none" stroke="black" d="M224.715,-255.687C228.915,-263.972 234.045,-274.09 238.719,-283.307"/>
<polygon fill="black" stroke="black" points="235.722,-285.135 243.366,-292.471 241.965,-281.969 235.722,-285.135"/>
</g>
<!-- string -->
<g id="node9" class="node"><title>string</title>
<polygon fill="none" stroke="black" points="153,-365.5 153,-401.5 207,-401.5 207,-365.5 153,-365.5"/>
<text text-anchor="middle" x="180" y="-379.8" font-family="Times New Roman,serif" font-size="14.00">string</text>
</g>
<!-- debug&#45;&gt;string -->
<g id="edge8" class="edge"><title>debug&#45;&gt;string</title>
<path fill="none" stroke="black" d="M180,-328.687C180,-336.711 180,-346.453 180,-355.431"/>
<polygon fill="black" stroke="black" points="176.5,-355.471 180,-365.471 183.5,-355.471 176.5,-355.471"/>
</g>
<!-- allocator -->
<g id="node10" class="node"><title>allocator</title>
<polygon fill="none" stroke="black" points="69.5,-438.5 69.5,-474.5 134.5,-474.5 134.5,-438.5 69.5,-438.5"/>
<text text-anchor="middle" x="102" y="-452.8" font-family="Times New Roman,serif" font-size="14.00">allocator</text>
</g>
<!-- string&#45;&gt;allocator -->
<g id="edge9" class="edge"><title>string&#45;&gt;allocator</title>
<path fill="none" stroke="black" d="M161.118,-401.687C151.25,-410.67 139.015,-421.807 128.241,-431.614"/>
<polygon fill="black" stroke="black" points="125.747,-429.151 120.708,-438.471 130.459,-434.328 125.747,-429.151"/>
</g>
<!-- hash -->
<g id="node11" class="node"><title>hash</title>
<polygon fill="none" stroke="black" points="153,-438.5 153,-474.5 207,-474.5 207,-438.5 153,-438.5"/>
<text text-anchor="middle" x="180" y="-452.8" font-family="Times New Roman,serif" font-size="14.00">hash</text>
</g>
<!-- string&#45;&gt;hash -->
<g id="edge10" class="edge"><title>string&#45;&gt;hash</title>
<path fill="none" stroke="black" d="M180,-401.687C180,-409.711 180,-419.453 180,-428.431"/>
<polygon fill="black" stroke="black" points="176.5,-428.471 180,-438.471 183.5,-428.471 176.5,-428.471"/>
</g>
<!-- readerwriter -->
<g id="node12" class="node"><title>readerwriter</title>
<polygon fill="none" stroke="black" points="225.5,-438.5 225.5,-474.5 308.5,-474.5 308.5,-438.5 225.5,-438.5"/>
<text text-anchor="middle" x="267" y="-452.8" font-family="Times New Roman,serif" font-size="14.00">readerwriter</text>
</g>
<!-- string&#45;&gt;readerwriter -->
<g id="edge11" class="edge"><title>string&#45;&gt;readerwriter</title>
<path fill="none" stroke="black" d="M201.06,-401.687C212.174,-410.757 225.979,-422.023 238.081,-431.9"/>
<polygon fill="black" stroke="black" points="236.173,-434.86 246.134,-438.471 240.599,-429.437 236.173,-434.86"/>
</g>
<!-- endian -->
<g id="node13" class="node"><title>endian</title>
<polygon fill="none" stroke="black" points="94,-511.5 94,-547.5 148,-547.5 148,-511.5 94,-511.5"/>
<text text-anchor="middle" x="121" y="-525.8" font-family="Times New Roman,serif" font-size="14.00">endian</text>
</g>
<!-- readerwriter&#45;&gt;endian -->
<g id="edge12" class="edge"><title>readerwriter&#45;&gt;endian</title>
<path fill="none" stroke="black" d="M232.029,-474.506C209.489,-485.468 180.238,-499.693 157.418,-510.79"/>
<polygon fill="black" stroke="black" points="155.849,-507.661 148.387,-515.182 158.91,-513.956 155.849,-507.661"/>
</g>
<!-- error -->
<g id="node14" class="node"><title>error</title>
<polygon fill="none" stroke="black" points="166,-511.5 166,-547.5 220,-547.5 220,-511.5 166,-511.5"/>
<text text-anchor="middle" x="193" y="-525.8" font-family="Times New Roman,serif" font-size="14.00">error</text>
</g>
<!-- readerwriter&#45;&gt;error -->
<g id="edge13" class="edge"><title>readerwriter&#45;&gt;error</title>
<path fill="none" stroke="black" d="M249.087,-474.687C239.815,-483.583 228.342,-494.591 218.193,-504.328"/>
<polygon fill="black" stroke="black" points="215.541,-502.022 210.748,-511.471 220.387,-507.073 215.541,-502.022"/>
</g>
<!-- filepath -->
<g id="node15" class="node"><title>filepath</title>
<polygon fill="none" stroke="black" points="238.5,-511.5 238.5,-547.5 295.5,-547.5 295.5,-511.5 238.5,-511.5"/>
<text text-anchor="middle" x="267" y="-525.8" font-family="Times New Roman,serif" font-size="14.00">filepath</text>
</g>
<!-- readerwriter&#45;&gt;filepath -->
<g id="edge14" class="edge"><title>readerwriter&#45;&gt;filepath</title>
<path fill="none" stroke="black" d="M267,-474.687C267,-482.711 267,-492.453 267,-501.431"/>
<polygon fill="black" stroke="black" points="263.5,-501.471 267,-511.471 270.5,-501.471 263.5,-501.471"/>
</g>
<!-- uint32_t -->
<g id="node16" class="node"><title>uint32_t</title>
<polygon fill="none" stroke="black" points="314,-511.5 314,-547.5 376,-547.5 376,-511.5 314,-511.5"/>
<text text-anchor="middle" x="345" y="-525.8" font-family="Times New Roman,serif" font-size="14.00">uint32_t</text>
</g>
<!-- readerwriter&#45;&gt;uint32_t -->
<g id="edge15" class="edge"><title>readerwriter&#45;&gt;uint32_t</title>
<path fill="none" stroke="black" d="M285.882,-474.687C295.75,-483.67 307.985,-494.807 318.759,-504.614"/>
<polygon fill="black" stroke="black" points="316.541,-507.328 326.292,-511.471 321.253,-502.151 316.541,-507.328"/>
</g>
<!-- math -->
<g id="node17" class="node"><title>math</title>
<polygon fill="none" stroke="black" points="394,-511.5 394,-547.5 448,-547.5 448,-511.5 394,-511.5"/>
<text text-anchor="middle" x="421" y="-525.8" font-family="Times New Roman,serif" font-size="14.00">math</text>
</g>
<!-- readerwriter&#45;&gt;math -->
<g id="edge16" class="edge"><title>readerwriter&#45;&gt;math</title>
<path fill="none" stroke="black" d="M305.382,-474.589C326.438,-484.035 353.194,-496.151 384.506,-510.818"/>
<polygon fill="black" stroke="black" points="383.371,-514.152 393.911,-515.235 386.347,-507.816 383.371,-514.152"/>
</g>
<!-- file -->
<g id="node20" class="node"><title>file</title>
<polygon fill="none" stroke="black" points="204,-584.5 204,-620.5 258,-620.5 258,-584.5 204,-584.5"/>
<text text-anchor="middle" x="231" y="-598.8" font-family="Times New Roman,serif" font-size="14.00">file</text>
</g>
<!-- filepath&#45;&gt;file -->
<g id="edge19" class="edge"><title>filepath&#45;&gt;file</title>
<path fill="none" stroke="black" d="M258.285,-547.687C254.085,-555.972 248.955,-566.09 244.281,-575.307"/>
<polygon fill="black" stroke="black" points="241.035,-573.969 239.634,-584.471 247.278,-577.135 241.035,-573.969"/>
</g>
<!-- os -->
<g id="node21" class="node"><title>os</title>
<polygon fill="none" stroke="black" points="276,-584.5 276,-620.5 330,-620.5 330,-584.5 276,-584.5"/>
<text text-anchor="middle" x="303" y="-598.8" font-family="Times New Roman,serif" font-size="14.00">os</text>
</g>
<!-- filepath&#45;&gt;os -->
<g id="edge20" class="edge"><title>filepath&#45;&gt;os</title>
<path fill="none" stroke="black" d="M275.715,-547.687C279.915,-555.972 285.045,-566.09 289.719,-575.307"/>
<polygon fill="black" stroke="black" points="286.722,-577.135 294.366,-584.471 292.965,-573.969 286.722,-577.135"/>
</g>
<!-- simd_t -->
<g id="node18" class="node"><title>simd_t</title>
<polygon fill="none" stroke="black" points="393.5,-584.5 393.5,-620.5 448.5,-620.5 448.5,-584.5 393.5,-584.5"/>
<text text-anchor="middle" x="421" y="-598.8" font-family="Times New Roman,serif" font-size="14.00">simd_t</text>
</g>
<!-- math&#45;&gt;simd_t -->
<g id="edge17" class="edge"><title>math&#45;&gt;simd_t</title>
<path fill="none" stroke="black" d="M421,-547.687C421,-555.711 421,-565.453 421,-574.431"/>
<polygon fill="black" stroke="black" points="417.5,-574.471 421,-584.471 424.5,-574.471 417.5,-574.471"/>
</g>
<!-- simd128_swizzle -->
<g id="node19" class="node"><title>simd128_swizzle</title>
<polygon fill="none" stroke="black" points="365.5,-657.5 365.5,-693.5 476.5,-693.5 476.5,-657.5 365.5,-657.5"/>
<text text-anchor="middle" x="421" y="-671.8" font-family="Times New Roman,serif" font-size="14.00">simd128_swizzle</text>
</g>
<!-- simd_t&#45;&gt;simd128_swizzle -->
<g id="edge18" class="edge"><title>simd_t&#45;&gt;simd128_swizzle</title>
<path fill="none" stroke="black" d="M421,-620.687C421,-628.711 421,-638.453 421,-647.431"/>
<polygon fill="black" stroke="black" points="417.5,-647.471 421,-657.471 424.5,-647.471 417.5,-647.471"/>
</g>
</g>
</svg>
