<?xml version="1.0" encoding="UTF-8" standalone="no"?>
<!DOCTYPE svg PUBLIC "-//W3C//DTD SVG 1.1//EN"
 "http://www.w3.org/Graphics/SVG/1.1/DTD/svg11.dtd">
<!-- Generated by graphviz version 2.38.0 (20140413.2041)
 -->
<!-- Title: TTSFML_System Pages: 1 -->
<svg width="1075pt" height="702pt"
 viewBox="0.00 0.00 1075.00 702.00" xmlns="http://www.w3.org/2000/svg" xmlns:xlink="http://www.w3.org/1999/xlink">
<g id="graph0" class="graph" transform="scale(1 1) rotate(0) translate(4 698)">
<title>TTSFML_System</title>
<polygon fill="white" stroke="none" points="-4,4 -4,-698 1071,-698 1071,4 -4,4"/>
<!-- bgfx -->
<g id="node1" class="node"><title>bgfx</title>
<polygon fill="none" stroke="black" points="550,-0.5 550,-36.5 604,-36.5 604,-0.5 550,-0.5"/>
<text text-anchor="middle" x="577" y="-14.8" font-family="Times New Roman,serif" font-size="14.00">bgfx</text>
</g>
<!-- defines -->
<g id="node2" class="node"><title>defines</title>
<polygon fill="none" stroke="black" points="0,-73.5 0,-109.5 56,-109.5 56,-73.5 0,-73.5"/>
<text text-anchor="middle" x="28" y="-87.8" font-family="Times New Roman,serif" font-size="14.00">defines</text>
</g>
<!-- bgfx&#45;&gt;defines -->
<g id="edge1" class="edge"><title>bgfx&#45;&gt;defines</title>
<path fill="none" stroke="black" d="M549.752,-19.156C473.629,-18.857 252.604,-22.5174 66.0146,-73.2557"/>
<polygon fill="black" stroke="black" points="65.0155,-69.9006 56.3141,-75.9452 66.8857,-76.6461 65.0155,-69.9006"/>
</g>
<!-- platform -->
<g id="node3" class="node"><title>platform</title>
<polygon fill="none" stroke="black" points="74,-73.5 74,-109.5 138,-109.5 138,-73.5 74,-73.5"/>
<text text-anchor="middle" x="106" y="-87.8" font-family="Times New Roman,serif" font-size="14.00">platform</text>
</g>
<!-- bgfx&#45;&gt;platform -->
<g id="edge2" class="edge"><title>bgfx&#45;&gt;platform</title>
<path fill="none" stroke="black" d="M549.828,-20.2576C482.562,-22.6816 303.092,-32.5007 148.084,-73.1174"/>
<polygon fill="black" stroke="black" points="147.139,-69.747 138.381,-75.7093 148.946,-76.5099 147.139,-69.747"/>
</g>
<!-- c99bgfx -->
<g id="node4" class="node"><title>c99bgfx</title>
<polygon fill="none" stroke="black" points="156,-73.5 156,-109.5 218,-109.5 218,-73.5 156,-73.5"/>
<text text-anchor="middle" x="187" y="-87.8" font-family="Times New Roman,serif" font-size="14.00">c99bgfx</text>
</g>
<!-- bgfx&#45;&gt;c99bgfx -->
<g id="edge3" class="edge"><title>bgfx&#45;&gt;c99bgfx</title>
<path fill="none" stroke="black" d="M549.698,-21.2449C491.591,-25.4686 351.549,-38.3622 227.793,-73.1841"/>
<polygon fill="black" stroke="black" points="226.802,-69.8272 218.156,-75.9505 228.733,-76.5555 226.802,-69.8272"/>
</g>
<!-- embedded_shader -->
<g id="node5" class="node"><title>embedded_shader</title>
<polygon fill="none" stroke="black" points="236.5,-73.5 236.5,-109.5 355.5,-109.5 355.5,-73.5 236.5,-73.5"/>
<text text-anchor="middle" x="296" y="-87.8" font-family="Times New Roman,serif" font-size="14.00">embedded_shader</text>
</g>
<!-- bgfx&#45;&gt;embedded_shader -->
<g id="edge4" class="edge"><title>bgfx&#45;&gt;embedded_shader</title>
<path fill="none" stroke="black" d="M549.89,-26.3304C511.305,-36.0545 438.07,-54.5196 365.593,-72.8515"/>
<polygon fill="black" stroke="black" points="364.674,-69.4734 355.838,-75.3191 366.391,-76.2597 364.674,-69.4734"/>
</g>
<!-- cpu -->
<g id="node27" class="node"><title>cpu</title>
<polygon fill="none" stroke="black" points="374,-73.5 374,-109.5 428,-109.5 428,-73.5 374,-73.5"/>
<text text-anchor="middle" x="401" y="-87.8" font-family="Times New Roman,serif" font-size="14.00">cpu</text>
</g>
<!-- bgfx&#45;&gt;cpu -->
<g id="edge26" class="edge"><title>bgfx&#45;&gt;cpu</title>
<path fill="none" stroke="black" d="M549.88,-29.0659C523.3,-38.6145 481.51,-54.0863 437.199,-73.0816"/>
<polygon fill="black" stroke="black" points="435.798,-69.8743 428.009,-77.057 438.577,-76.299 435.798,-69.8743"/>
</g>
<!-- float4x4_t -->
<g id="node28" class="node"><title>float4x4_t</title>
<polygon fill="none" stroke="black" points="446.5,-73.5 446.5,-109.5 519.5,-109.5 519.5,-73.5 446.5,-73.5"/>
<text text-anchor="middle" x="483" y="-87.8" font-family="Times New Roman,serif" font-size="14.00">float4x4_t</text>
</g>
<!-- bgfx&#45;&gt;float4x4_t -->
<g id="edge27" class="edge"><title>bgfx&#45;&gt;float4x4_t</title>
<path fill="none" stroke="black" d="M554.245,-36.6871C542.122,-45.8442 527.034,-57.24 513.869,-67.1842"/>
<polygon fill="black" stroke="black" points="511.415,-64.6511 505.545,-73.4712 515.634,-70.2368 511.415,-64.6511"/>
</g>
<!-- handlealloc -->
<g id="node29" class="node"><title>handlealloc</title>
<polygon fill="none" stroke="black" points="537.5,-73.5 537.5,-109.5 616.5,-109.5 616.5,-73.5 537.5,-73.5"/>
<text text-anchor="middle" x="577" y="-87.8" font-family="Times New Roman,serif" font-size="14.00">handlealloc</text>
</g>
<!-- bgfx&#45;&gt;handlealloc -->
<g id="edge28" class="edge"><title>bgfx&#45;&gt;handlealloc</title>
<path fill="none" stroke="black" d="M577,-36.6871C577,-44.7105 577,-54.4525 577,-63.4309"/>
<polygon fill="black" stroke="black" points="573.5,-63.4711 577,-73.4712 580.5,-63.4712 573.5,-63.4711"/>
</g>
<!-- mutex -->
<g id="node30" class="node"><title>mutex</title>
<polygon fill="none" stroke="black" points="635,-73.5 635,-109.5 689,-109.5 689,-73.5 635,-73.5"/>
<text text-anchor="middle" x="662" y="-87.8" font-family="Times New Roman,serif" font-size="14.00">mutex</text>
</g>
<!-- bgfx&#45;&gt;mutex -->
<g id="edge29" class="edge"><title>bgfx&#45;&gt;mutex</title>
<path fill="none" stroke="black" d="M597.576,-36.6871C608.434,-45.757 621.922,-57.0231 633.746,-66.8996"/>
<polygon fill="black" stroke="black" points="631.695,-69.7466 641.613,-73.4712 636.182,-64.3742 631.695,-69.7466"/>
</g>
<!-- ringbuffer -->
<g id="node31" class="node"><title>ringbuffer</title>
<polygon fill="none" stroke="black" points="707.5,-73.5 707.5,-109.5 778.5,-109.5 778.5,-73.5 707.5,-73.5"/>
<text text-anchor="middle" x="743" y="-87.8" font-family="Times New Roman,serif" font-size="14.00">ringbuffer</text>
</g>
<!-- bgfx&#45;&gt;ringbuffer -->
<g id="edge30" class="edge"><title>bgfx&#45;&gt;ringbuffer</title>
<path fill="none" stroke="black" d="M604.04,-31.0654C629.407,-41.9152 667.828,-58.3483 697.846,-71.1871"/>
<polygon fill="black" stroke="black" points="696.699,-74.5031 707.269,-75.2176 699.451,-68.067 696.699,-74.5031"/>
</g>
<!-- sort -->
<g id="node32" class="node"><title>sort</title>
<polygon fill="none" stroke="black" points="797,-73.5 797,-109.5 851,-109.5 851,-73.5 797,-73.5"/>
<text text-anchor="middle" x="824" y="-87.8" font-family="Times New Roman,serif" font-size="14.00">sort</text>
</g>
<!-- bgfx&#45;&gt;sort -->
<g id="edge31" class="edge"><title>bgfx&#45;&gt;sort</title>
<path fill="none" stroke="black" d="M604.177,-24.5392C643.13,-32.1557 717.047,-48.0735 787.297,-73.1058"/>
<polygon fill="black" stroke="black" points="786.139,-76.409 796.733,-76.5327 788.529,-69.8294 786.139,-76.409"/>
</g>
<!-- thread -->
<g id="node33" class="node"><title>thread</title>
<polygon fill="none" stroke="black" points="869,-73.5 869,-109.5 923,-109.5 923,-73.5 869,-73.5"/>
<text text-anchor="middle" x="896" y="-87.8" font-family="Times New Roman,serif" font-size="14.00">thread</text>
</g>
<!-- bgfx&#45;&gt;thread -->
<g id="edge32" class="edge"><title>bgfx&#45;&gt;thread</title>
<path fill="none" stroke="black" d="M604.13,-22.2028C653.595,-27.6409 761.601,-41.8738 859.095,-73.1668"/>
<polygon fill="black" stroke="black" points="858.204,-76.5581 868.797,-76.35 860.386,-69.9069 858.204,-76.5581"/>
</g>
<!-- timer -->
<g id="node34" class="node"><title>timer</title>
<polygon fill="none" stroke="black" points="941,-73.5 941,-109.5 995,-109.5 995,-73.5 941,-73.5"/>
<text text-anchor="middle" x="968" y="-87.8" font-family="Times New Roman,serif" font-size="14.00">timer</text>
</g>
<!-- bgfx&#45;&gt;timer -->
<g id="edge33" class="edge"><title>bgfx&#45;&gt;timer</title>
<path fill="none" stroke="black" d="M604.343,-20.8062C663.204,-24.2066 806.045,-35.6239 931.097,-73.2445"/>
<polygon fill="black" stroke="black" points="930.246,-76.6443 940.833,-76.2384 932.303,-69.9536 930.246,-76.6443"/>
</g>
<!-- bimg -->
<g id="node35" class="node"><title>bimg</title>
<polygon fill="none" stroke="black" points="1013,-73.5 1013,-109.5 1067,-109.5 1067,-73.5 1013,-73.5"/>
<text text-anchor="middle" x="1040" y="-87.8" font-family="Times New Roman,serif" font-size="14.00">bimg</text>
</g>
<!-- bgfx&#45;&gt;bimg -->
<g id="edge34" class="edge"><title>bgfx&#45;&gt;bimg</title>
<path fill="none" stroke="black" d="M604.107,-19.8456C671.118,-21.3344 849.639,-29.1744 1002.8,-73.2102"/>
<polygon fill="black" stroke="black" points="1002.27,-76.7022 1012.86,-76.1634 1004.25,-69.9861 1002.27,-76.7022"/>
</g>
<!-- macros -->
<g id="node6" class="node"><title>macros</title>
<polygon fill="none" stroke="black" points="267,-146.5 267,-182.5 325,-182.5 325,-146.5 267,-146.5"/>
<text text-anchor="middle" x="296" y="-160.8" font-family="Times New Roman,serif" font-size="14.00">macros</text>
</g>
<!-- embedded_shader&#45;&gt;macros -->
<g id="edge5" class="edge"><title>embedded_shader&#45;&gt;macros</title>
<path fill="none" stroke="black" d="M296,-109.687C296,-117.711 296,-127.453 296,-136.431"/>
<polygon fill="black" stroke="black" points="292.5,-136.471 296,-146.471 299.5,-136.471 292.5,-136.471"/>
</g>
<!-- bx -->
<g id="node7" class="node"><title>bx</title>
<polygon fill="none" stroke="black" points="269,-219.5 269,-255.5 323,-255.5 323,-219.5 269,-219.5"/>
<text text-anchor="middle" x="296" y="-233.8" font-family="Times New Roman,serif" font-size="14.00">bx</text>
</g>
<!-- macros&#45;&gt;bx -->
<g id="edge6" class="edge"><title>macros&#45;&gt;bx</title>
<path fill="none" stroke="black" d="M296,-182.687C296,-190.711 296,-200.453 296,-209.431"/>
<polygon fill="black" stroke="black" points="292.5,-209.471 296,-219.471 299.5,-209.471 292.5,-209.471"/>
</g>
<!-- debug -->
<g id="node8" class="node"><title>debug</title>
<polygon fill="none" stroke="black" points="233,-292.5 233,-328.5 287,-328.5 287,-292.5 233,-292.5"/>
<text text-anchor="middle" x="260" y="-306.8" font-family="Times New Roman,serif" font-size="14.00">debug</text>
</g>
<!-- bx&#45;&gt;debug -->
<g id="edge7" class="edge"><title>bx&#45;&gt;debug</title>
<path fill="none" stroke="black" d="M287.285,-255.687C283.085,-263.972 277.955,-274.09 273.281,-283.307"/>
<polygon fill="black" stroke="black" points="270.035,-281.969 268.634,-292.471 276.278,-285.135 270.035,-281.969"/>
</g>
<!-- config -->
<g id="node9" class="node"><title>config</title>
<polygon fill="none" stroke="black" points="305,-292.5 305,-328.5 359,-328.5 359,-292.5 305,-292.5"/>
<text text-anchor="middle" x="332" y="-306.8" font-family="Times New Roman,serif" font-size="14.00">config</text>
</g>
<!-- bx&#45;&gt;config -->
<g id="edge8" class="edge"><title>bx&#45;&gt;config</title>
<path fill="none" stroke="black" d="M304.715,-255.687C308.915,-263.972 314.045,-274.09 318.719,-283.307"/>
<polygon fill="black" stroke="black" points="315.722,-285.135 323.366,-292.471 321.965,-281.969 315.722,-285.135"/>
</g>
<!-- string -->
<g id="node10" class="node"><title>string</title>
<polygon fill="none" stroke="black" points="233,-365.5 233,-401.5 287,-401.5 287,-365.5 233,-365.5"/>
<text text-anchor="middle" x="260" y="-379.8" font-family="Times New Roman,serif" font-size="14.00">string</text>
</g>
<!-- debug&#45;&gt;string -->
<g id="edge9" class="edge"><title>debug&#45;&gt;string</title>
<path fill="none" stroke="black" d="M260,-328.687C260,-336.711 260,-346.453 260,-355.431"/>
<polygon fill="black" stroke="black" points="256.5,-355.471 260,-365.471 263.5,-355.471 256.5,-355.471"/>
</g>
<!-- allocator -->
<g id="node11" class="node"><title>allocator</title>
<polygon fill="none" stroke="black" points="149.5,-438.5 149.5,-474.5 214.5,-474.5 214.5,-438.5 149.5,-438.5"/>
<text text-anchor="middle" x="182" y="-452.8" font-family="Times New Roman,serif" font-size="14.00">allocator</text>
</g>
<!-- string&#45;&gt;allocator -->
<g id="edge10" class="edge"><title>string&#45;&gt;allocator</title>
<path fill="none" stroke="black" d="M241.118,-401.687C231.25,-410.67 219.015,-421.807 208.241,-431.614"/>
<polygon fill="black" stroke="black" points="205.747,-429.151 200.708,-438.471 210.459,-434.328 205.747,-429.151"/>
</g>
<!-- hash -->
<g id="node12" class="node"><title>hash</title>
<polygon fill="none" stroke="black" points="233,-438.5 233,-474.5 287,-474.5 287,-438.5 233,-438.5"/>
<text text-anchor="middle" x="260" y="-452.8" font-family="Times New Roman,serif" font-size="14.00">hash</text>
</g>
<!-- string&#45;&gt;hash -->
<g id="edge11" class="edge"><title>string&#45;&gt;hash</title>
<path fill="none" stroke="black" d="M260,-401.687C260,-409.711 260,-419.453 260,-428.431"/>
<polygon fill="black" stroke="black" points="256.5,-428.471 260,-438.471 263.5,-428.471 256.5,-428.471"/>
</g>
<!-- readerwriter -->
<g id="node13" class="node"><title>readerwriter</title>
<polygon fill="none" stroke="black" points="305.5,-438.5 305.5,-474.5 388.5,-474.5 388.5,-438.5 305.5,-438.5"/>
<text text-anchor="middle" x="347" y="-452.8" font-family="Times New Roman,serif" font-size="14.00">readerwriter</text>
</g>
<!-- string&#45;&gt;readerwriter -->
<g id="edge12" class="edge"><title>string&#45;&gt;readerwriter</title>
<path fill="none" stroke="black" d="M281.06,-401.687C292.174,-410.757 305.979,-422.023 318.081,-431.9"/>
<polygon fill="black" stroke="black" points="316.173,-434.86 326.134,-438.471 320.599,-429.437 316.173,-434.86"/>
</g>
<!-- endian -->
<g id="node14" class="node"><title>endian</title>
<polygon fill="none" stroke="black" points="174,-511.5 174,-547.5 228,-547.5 228,-511.5 174,-511.5"/>
<text text-anchor="middle" x="201" y="-525.8" font-family="Times New Roman,serif" font-size="14.00">endian</text>
</g>
<!-- readerwriter&#45;&gt;endian -->
<g id="edge13" class="edge"><title>readerwriter&#45;&gt;endian</title>
<path fill="none" stroke="black" d="M312.029,-474.506C289.489,-485.468 260.238,-499.693 237.418,-510.79"/>
<polygon fill="black" stroke="black" points="235.849,-507.661 228.387,-515.182 238.91,-513.956 235.849,-507.661"/>
</g>
<!-- error -->
<g id="node15" class="node"><title>error</title>
<polygon fill="none" stroke="black" points="246,-511.5 246,-547.5 300,-547.5 300,-511.5 246,-511.5"/>
<text text-anchor="middle" x="273" y="-525.8" font-family="Times New Roman,serif" font-size="14.00">error</text>
</g>
<!-- readerwriter&#45;&gt;error -->
<g id="edge14" class="edge"><title>readerwriter&#45;&gt;error</title>
<path fill="none" stroke="black" d="M329.087,-474.687C319.815,-483.583 308.342,-494.591 298.193,-504.328"/>
<polygon fill="black" stroke="black" points="295.541,-502.022 290.748,-511.471 300.387,-507.073 295.541,-502.022"/>
</g>
<!-- filepath -->
<g id="node16" class="node"><title>filepath</title>
<polygon fill="none" stroke="black" points="318.5,-511.5 318.5,-547.5 375.5,-547.5 375.5,-511.5 318.5,-511.5"/>
<text text-anchor="middle" x="347" y="-525.8" font-family="Times New Roman,serif" font-size="14.00">filepath</text>
</g>
<!-- readerwriter&#45;&gt;filepath -->
<g id="edge15" class="edge"><title>readerwriter&#45;&gt;filepath</title>
<path fill="none" stroke="black" d="M347,-474.687C347,-482.711 347,-492.453 347,-501.431"/>
<polygon fill="black" stroke="black" points="343.5,-501.471 347,-511.471 350.5,-501.471 343.5,-501.471"/>
</g>
<!-- uint32_t -->
<g id="node17" class="node"><title>uint32_t</title>
<polygon fill="none" stroke="black" points="394,-511.5 394,-547.5 456,-547.5 456,-511.5 394,-511.5"/>
<text text-anchor="middle" x="425" y="-525.8" font-family="Times New Roman,serif" font-size="14.00">uint32_t</text>
</g>
<!-- readerwriter&#45;&gt;uint32_t -->
<g id="edge16" class="edge"><title>readerwriter&#45;&gt;uint32_t</title>
<path fill="none" stroke="black" d="M365.882,-474.687C375.75,-483.67 387.985,-494.807 398.759,-504.614"/>
<polygon fill="black" stroke="black" points="396.541,-507.328 406.292,-511.471 401.253,-502.151 396.541,-507.328"/>
</g>
<!-- math -->
<g id="node18" class="node"><title>math</title>
<polygon fill="none" stroke="black" points="474,-511.5 474,-547.5 528,-547.5 528,-511.5 474,-511.5"/>
<text text-anchor="middle" x="501" y="-525.8" font-family="Times New Roman,serif" font-size="14.00">math</text>
</g>
<!-- readerwriter&#45;&gt;math -->
<g id="edge17" class="edge"><title>readerwriter&#45;&gt;math</title>
<path fill="none" stroke="black" d="M385.382,-474.589C406.438,-484.035 433.194,-496.151 464.506,-510.818"/>
<polygon fill="black" stroke="black" points="463.371,-514.152 473.911,-515.235 466.347,-507.816 463.371,-514.152"/>
</g>
<!-- file -->
<g id="node25" class="node"><title>file</title>
<polygon fill="none" stroke="black" points="284,-584.5 284,-620.5 338,-620.5 338,-584.5 284,-584.5"/>
<text text-anchor="middle" x="311" y="-598.8" font-family="Times New Roman,serif" font-size="14.00">file</text>
</g>
<!-- filepath&#45;&gt;file -->
<g id="edge24" class="edge"><title>filepath&#45;&gt;file</title>
<path fill="none" stroke="black" d="M338.285,-547.687C334.085,-555.972 328.955,-566.09 324.281,-575.307"/>
<polygon fill="black" stroke="black" points="321.035,-573.969 319.634,-584.471 327.278,-577.135 321.035,-573.969"/>
</g>
<!-- os -->
<g id="node26" class="node"><title>os</title>
<polygon fill="none" stroke="black" points="356,-584.5 356,-620.5 410,-620.5 410,-584.5 356,-584.5"/>
<text text-anchor="middle" x="383" y="-598.8" font-family="Times New Roman,serif" font-size="14.00">os</text>
</g>
<!-- filepath&#45;&gt;os -->
<g id="edge25" class="edge"><title>filepath&#45;&gt;os</title>
<path fill="none" stroke="black" d="M355.715,-547.687C359.915,-555.972 365.045,-566.09 369.719,-575.307"/>
<polygon fill="black" stroke="black" points="366.722,-577.135 374.366,-584.471 372.965,-573.969 366.722,-577.135"/>
</g>
<!-- simd_t -->
<g id="node19" class="node"><title>simd_t</title>
<polygon fill="none" stroke="black" points="473.5,-584.5 473.5,-620.5 528.5,-620.5 528.5,-584.5 473.5,-584.5"/>
<text text-anchor="middle" x="501" y="-598.8" font-family="Times New Roman,serif" font-size="14.00">simd_t</text>
</g>
<!-- math&#45;&gt;simd_t -->
<g id="edge18" class="edge"><title>math&#45;&gt;simd_t</title>
<path fill="none" stroke="black" d="M501,-547.687C501,-555.711 501,-565.453 501,-574.431"/>
<polygon fill="black" stroke="black" points="497.5,-574.471 501,-584.471 504.5,-574.471 497.5,-574.471"/>
</g>
<!-- simd128_swizzle -->
<g id="node20" class="node"><title>simd128_swizzle</title>
<polygon fill="none" stroke="black" points="221.5,-657.5 221.5,-693.5 332.5,-693.5 332.5,-657.5 221.5,-657.5"/>
<text text-anchor="middle" x="277" y="-671.8" font-family="Times New Roman,serif" font-size="14.00">simd128_swizzle</text>
</g>
<!-- simd_t&#45;&gt;simd128_swizzle -->
<g id="edge19" class="edge"><title>simd_t&#45;&gt;simd128_swizzle</title>
<path fill="none" stroke="black" d="M473.083,-612.349C440.155,-622.786 384.376,-640.466 340.71,-654.306"/>
<polygon fill="black" stroke="black" points="339.501,-651.018 331.026,-657.376 341.616,-657.691 339.501,-651.018"/>
</g>
<!-- simd128_sse -->
<g id="node21" class="node"><title>simd128_sse</title>
<polygon fill="none" stroke="black" points="350.5,-657.5 350.5,-693.5 439.5,-693.5 439.5,-657.5 350.5,-657.5"/>
<text text-anchor="middle" x="395" y="-671.8" font-family="Times New Roman,serif" font-size="14.00">simd128_sse</text>
</g>
<!-- simd_t&#45;&gt;simd128_sse -->
<g id="edge20" class="edge"><title>simd_t&#45;&gt;simd128_sse</title>
<path fill="none" stroke="black" d="M475.61,-620.506C461.684,-629.834 444.229,-641.526 429.126,-651.642"/>
<polygon fill="black" stroke="black" points="426.91,-648.913 420.55,-657.386 430.806,-654.729 426.91,-648.913"/>
</g>
<!-- simd128_ref -->
<g id="node22" class="node"><title>simd128_ref</title>
<polygon fill="none" stroke="black" points="458,-657.5 458,-693.5 544,-693.5 544,-657.5 458,-657.5"/>
<text text-anchor="middle" x="501" y="-671.8" font-family="Times New Roman,serif" font-size="14.00">simd128_ref</text>
</g>
<!-- simd_t&#45;&gt;simd128_ref -->
<g id="edge21" class="edge"><title>simd_t&#45;&gt;simd128_ref</title>
<path fill="none" stroke="black" d="M501,-620.687C501,-628.711 501,-638.453 501,-647.431"/>
<polygon fill="black" stroke="black" points="497.5,-647.471 501,-657.471 504.5,-647.471 497.5,-647.471"/>
</g>
<!-- simd256_ref -->
<g id="node23" class="node"><title>simd256_ref</title>
<polygon fill="none" stroke="black" points="562,-657.5 562,-693.5 648,-693.5 648,-657.5 562,-657.5"/>
<text text-anchor="middle" x="605" y="-671.8" font-family="Times New Roman,serif" font-size="14.00">simd256_ref</text>
</g>
<!-- simd_t&#45;&gt;simd256_ref -->
<g id="edge22" class="edge"><title>simd_t&#45;&gt;simd256_ref</title>
<path fill="none" stroke="black" d="M525.911,-620.506C539.574,-629.834 556.7,-641.526 571.518,-651.642"/>
<polygon fill="black" stroke="black" points="569.7,-654.639 579.932,-657.386 573.647,-648.857 569.7,-654.639"/>
</g>
<!-- simd_ni -->
<g id="node24" class="node"><title>simd_ni</title>
<polygon fill="none" stroke="black" points="666.5,-657.5 666.5,-693.5 727.5,-693.5 727.5,-657.5 666.5,-657.5"/>
<text text-anchor="middle" x="697" y="-671.8" font-family="Times New Roman,serif" font-size="14.00">simd_ni</text>
</g>
<!-- simd_t&#45;&gt;simd_ni -->
<g id="edge23" class="edge"><title>simd_t&#45;&gt;simd_ni</title>
<path fill="none" stroke="black" d="M528.581,-612.201C558.112,-621.682 606.484,-637.682 656.702,-657.03"/>
<polygon fill="black" stroke="black" points="655.507,-660.321 666.096,-660.681 658.043,-653.796 655.507,-660.321"/>
</g>
<!-- mpscqueue -->
<g id="node36" class="node"><title>mpscqueue</title>
<polygon fill="none" stroke="black" points="856,-146.5 856,-182.5 936,-182.5 936,-146.5 856,-146.5"/>
<text text-anchor="middle" x="896" y="-160.8" font-family="Times New Roman,serif" font-size="14.00">mpscqueue</text>
</g>
<!-- thread&#45;&gt;mpscqueue -->
<g id="edge35" class="edge"><title>thread&#45;&gt;mpscqueue</title>
<path fill="none" stroke="black" d="M896,-109.687C896,-117.711 896,-127.453 896,-136.431"/>
<polygon fill="black" stroke="black" points="892.5,-136.471 896,-146.471 899.5,-136.471 892.5,-136.471"/>
</g>
<!-- spscqueue -->
<g id="node37" class="node"><title>spscqueue</title>
<polygon fill="none" stroke="black" points="858,-219.5 858,-255.5 934,-255.5 934,-219.5 858,-219.5"/>
<text text-anchor="middle" x="896" y="-233.8" font-family="Times New Roman,serif" font-size="14.00">spscqueue</text>
</g>
<!-- mpscqueue&#45;&gt;spscqueue -->
<g id="edge36" class="edge"><title>mpscqueue&#45;&gt;spscqueue</title>
<path fill="none" stroke="black" d="M896,-182.687C896,-190.711 896,-200.453 896,-209.431"/>
<polygon fill="black" stroke="black" points="892.5,-209.471 896,-219.471 899.5,-209.471 892.5,-209.471"/>
</g>
<!-- semaphore -->
<g id="node38" class="node"><title>semaphore</title>
<polygon fill="none" stroke="black" points="857.5,-292.5 857.5,-328.5 934.5,-328.5 934.5,-292.5 857.5,-292.5"/>
<text text-anchor="middle" x="896" y="-306.8" font-family="Times New Roman,serif" font-size="14.00">semaphore</text>
</g>
<!-- spscqueue&#45;&gt;semaphore -->
<g id="edge37" class="edge"><title>spscqueue&#45;&gt;semaphore</title>
<path fill="none" stroke="black" d="M896,-255.687C896,-263.711 896,-273.453 896,-282.431"/>
<polygon fill="black" stroke="black" points="892.5,-282.471 896,-292.471 899.5,-282.471 892.5,-282.471"/>
</g>
</g>
</svg>
