<?xml version="1.0" encoding="UTF-8" standalone="no"?>
<!DOCTYPE svg PUBLIC "-//W3C//DTD SVG 1.1//EN"
 "http://www.w3.org/Graphics/SVG/1.1/DTD/svg11.dtd">
<!-- Generated by graphviz version 2.38.0 (20140413.2041)
 -->
<!-- Title: tinybgfx Pages: 1 -->
<svg width="2099pt" height="702pt"
 viewBox="0.00 0.00 2099.00 702.00" xmlns="http://www.w3.org/2000/svg" xmlns:xlink="http://www.w3.org/1999/xlink">
<g id="graph0" class="graph" transform="scale(1 1) rotate(0) translate(4 698)">
<title>tinybgfx</title>
<polygon fill="white" stroke="none" points="-4,4 -4,-698 2095,-698 2095,4 -4,4"/>
<!-- bgfx -->
<g id="node1" class="node"><title>bgfx</title>
<polygon fill="none" stroke="black" points="797,-0.5 797,-36.5 851,-36.5 851,-0.5 797,-0.5"/>
<text text-anchor="middle" x="824" y="-14.8" font-family="Times New Roman,serif" font-size="14.00">bgfx</text>
</g>
<!-- defines -->
<g id="node2" class="node"><title>defines</title>
<polygon fill="none" stroke="black" points="0,-73.5 0,-109.5 56,-109.5 56,-73.5 0,-73.5"/>
<text text-anchor="middle" x="28" y="-87.8" font-family="Times New Roman,serif" font-size="14.00">defines</text>
</g>
<!-- bgfx&#45;&gt;defines -->
<g id="edge1" class="edge"><title>bgfx&#45;&gt;defines</title>
<path fill="none" stroke="black" d="M796.916,-20.069C681.146,-22.7017 226.819,-35.1264 65.9962,-73.4048"/>
<polygon fill="black" stroke="black" points="65.1328,-70.0129 56.2865,-75.8433 66.8379,-76.8021 65.1328,-70.0129"/>
</g>
<!-- platform -->
<g id="node3" class="node"><title>platform</title>
<polygon fill="none" stroke="black" points="74,-73.5 74,-109.5 138,-109.5 138,-73.5 74,-73.5"/>
<text text-anchor="middle" x="106" y="-87.8" font-family="Times New Roman,serif" font-size="14.00">platform</text>
</g>
<!-- bgfx&#45;&gt;platform -->
<g id="edge2" class="edge"><title>bgfx&#45;&gt;platform</title>
<path fill="none" stroke="black" d="M796.965,-20.468C689.64,-24.4861 292.866,-41.0502 148.31,-73.2265"/>
<polygon fill="black" stroke="black" points="147.278,-69.8736 138.345,-75.5702 148.881,-76.6876 147.278,-69.8736"/>
</g>
<!-- c99bgfx -->
<g id="node4" class="node"><title>c99bgfx</title>
<polygon fill="none" stroke="black" points="156,-73.5 156,-109.5 218,-109.5 218,-73.5 156,-73.5"/>
<text text-anchor="middle" x="187" y="-87.8" font-family="Times New Roman,serif" font-size="14.00">c99bgfx</text>
</g>
<!-- bgfx&#45;&gt;c99bgfx -->
<g id="edge3" class="edge"><title>bgfx&#45;&gt;c99bgfx</title>
<path fill="none" stroke="black" d="M796.7,-18.8538C712.401,-17.4997 449.076,-18.0824 227.936,-73.2587"/>
<polygon fill="black" stroke="black" points="226.934,-69.9022 218.103,-75.7559 228.657,-76.6869 226.934,-69.9022"/>
</g>
<!-- embedded_shader -->
<g id="node5" class="node"><title>embedded_shader</title>
<polygon fill="none" stroke="black" points="236.5,-73.5 236.5,-109.5 355.5,-109.5 355.5,-73.5 236.5,-73.5"/>
<text text-anchor="middle" x="296" y="-87.8" font-family="Times New Roman,serif" font-size="14.00">embedded_shader</text>
</g>
<!-- bgfx&#45;&gt;embedded_shader -->
<g id="edge4" class="edge"><title>bgfx&#45;&gt;embedded_shader</title>
<path fill="none" stroke="black" d="M796.912,-21.3982C727.058,-26.5593 535.033,-42.4326 365.575,-73.0366"/>
<polygon fill="black" stroke="black" points="364.94,-69.5945 355.732,-74.8356 366.199,-76.4805 364.94,-69.5945"/>
</g>
<!-- cpu -->
<g id="node27" class="node"><title>cpu</title>
<polygon fill="none" stroke="black" points="374,-73.5 374,-109.5 428,-109.5 428,-73.5 374,-73.5"/>
<text text-anchor="middle" x="401" y="-87.8" font-family="Times New Roman,serif" font-size="14.00">cpu</text>
</g>
<!-- bgfx&#45;&gt;cpu -->
<g id="edge26" class="edge"><title>bgfx&#45;&gt;cpu</title>
<path fill="none" stroke="black" d="M796.629,-20.3405C733.946,-22.8792 575.433,-32.7943 438.012,-73.2368"/>
<polygon fill="black" stroke="black" points="436.724,-69.9694 428.156,-76.2017 438.74,-76.6726 436.724,-69.9694"/>
</g>
<!-- float4x4_t -->
<g id="node28" class="node"><title>float4x4_t</title>
<polygon fill="none" stroke="black" points="446.5,-73.5 446.5,-109.5 519.5,-109.5 519.5,-73.5 446.5,-73.5"/>
<text text-anchor="middle" x="483" y="-87.8" font-family="Times New Roman,serif" font-size="14.00">float4x4_t</text>
</g>
<!-- bgfx&#45;&gt;float4x4_t -->
<g id="edge27" class="edge"><title>bgfx&#45;&gt;float4x4_t</title>
<path fill="none" stroke="black" d="M796.668,-22.6556C745.63,-28.9263 632.376,-44.6233 529.556,-72.8212"/>
<polygon fill="black" stroke="black" points="528.332,-69.5292 519.641,-75.5891 530.214,-76.2714 528.332,-69.5292"/>
</g>
<!-- handlealloc -->
<g id="node29" class="node"><title>handlealloc</title>
<polygon fill="none" stroke="black" points="537.5,-73.5 537.5,-109.5 616.5,-109.5 616.5,-73.5 537.5,-73.5"/>
<text text-anchor="middle" x="577" y="-87.8" font-family="Times New Roman,serif" font-size="14.00">handlealloc</text>
</g>
<!-- bgfx&#45;&gt;handlealloc -->
<g id="edge28" class="edge"><title>bgfx&#45;&gt;handlealloc</title>
<path fill="none" stroke="black" d="M796.903,-26.0985C760.38,-35.1482 693.171,-52.3484 626.575,-72.9418"/>
<polygon fill="black" stroke="black" points="625.261,-69.685 616.757,-76.0042 627.346,-76.3675 625.261,-69.685"/>
</g>
<!-- mutex -->
<g id="node30" class="node"><title>mutex</title>
<polygon fill="none" stroke="black" points="635,-73.5 635,-109.5 689,-109.5 689,-73.5 635,-73.5"/>
<text text-anchor="middle" x="662" y="-87.8" font-family="Times New Roman,serif" font-size="14.00">mutex</text>
</g>
<!-- bgfx&#45;&gt;mutex -->
<g id="edge29" class="edge"><title>bgfx&#45;&gt;mutex</title>
<path fill="none" stroke="black" d="M796.789,-30.5842C773.055,-40.3548 737.519,-55.2284 698.503,-72.8697"/>
<polygon fill="black" stroke="black" points="696.711,-69.8394 689.057,-77.1646 699.609,-76.2117 696.711,-69.8394"/>
</g>
<!-- ringbuffer -->
<g id="node31" class="node"><title>ringbuffer</title>
<polygon fill="none" stroke="black" points="707.5,-73.5 707.5,-109.5 778.5,-109.5 778.5,-73.5 707.5,-73.5"/>
<text text-anchor="middle" x="743" y="-87.8" font-family="Times New Roman,serif" font-size="14.00">ringbuffer</text>
</g>
<!-- bgfx&#45;&gt;ringbuffer -->
<g id="edge30" class="edge"><title>bgfx&#45;&gt;ringbuffer</title>
<path fill="none" stroke="black" d="M804.392,-36.6871C794.144,-45.6698 781.439,-56.8067 770.25,-66.6144"/>
<polygon fill="black" stroke="black" points="767.64,-64.2475 762.427,-73.4712 772.254,-69.5115 767.64,-64.2475"/>
</g>
<!-- sort -->
<g id="node32" class="node"><title>sort</title>
<polygon fill="none" stroke="black" points="797,-73.5 797,-109.5 851,-109.5 851,-73.5 797,-73.5"/>
<text text-anchor="middle" x="824" y="-87.8" font-family="Times New Roman,serif" font-size="14.00">sort</text>
</g>
<!-- bgfx&#45;&gt;sort -->
<g id="edge31" class="edge"><title>bgfx&#45;&gt;sort</title>
<path fill="none" stroke="black" d="M824,-36.6871C824,-44.7105 824,-54.4525 824,-63.4309"/>
<polygon fill="black" stroke="black" points="820.5,-63.4711 824,-73.4712 827.5,-63.4712 820.5,-63.4711"/>
</g>
<!-- thread -->
<g id="node33" class="node"><title>thread</title>
<polygon fill="none" stroke="black" points="869,-73.5 869,-109.5 923,-109.5 923,-73.5 869,-73.5"/>
<text text-anchor="middle" x="896" y="-87.8" font-family="Times New Roman,serif" font-size="14.00">thread</text>
</g>
<!-- bgfx&#45;&gt;thread -->
<g id="edge32" class="edge"><title>bgfx&#45;&gt;thread</title>
<path fill="none" stroke="black" d="M841.429,-36.6871C850.45,-45.5826 861.613,-56.5906 871.488,-66.3283"/>
<polygon fill="black" stroke="black" points="869.153,-68.9418 878.731,-73.4712 874.068,-63.9575 869.153,-68.9418"/>
</g>
<!-- timer -->
<g id="node34" class="node"><title>timer</title>
<polygon fill="none" stroke="black" points="941,-73.5 941,-109.5 995,-109.5 995,-73.5 941,-73.5"/>
<text text-anchor="middle" x="968" y="-87.8" font-family="Times New Roman,serif" font-size="14.00">timer</text>
</g>
<!-- bgfx&#45;&gt;timer -->
<g id="edge33" class="edge"><title>bgfx&#45;&gt;timer</title>
<path fill="none" stroke="black" d="M851.085,-32.8546C873.769,-44.039 906.357,-60.1064 931.368,-72.4384"/>
<polygon fill="black" stroke="black" points="930.03,-75.6808 940.547,-76.9639 933.125,-69.4025 930.03,-75.6808"/>
</g>
<!-- shader -->
<g id="node35" class="node"><title>shader</title>
<polygon fill="none" stroke="black" points="1013,-73.5 1013,-109.5 1067,-109.5 1067,-73.5 1013,-73.5"/>
<text text-anchor="middle" x="1040" y="-87.8" font-family="Times New Roman,serif" font-size="14.00">shader</text>
</g>
<!-- bgfx&#45;&gt;shader -->
<g id="edge34" class="edge"><title>bgfx&#45;&gt;shader</title>
<path fill="none" stroke="black" d="M851.299,-26.1257C885.161,-34.6631 944.685,-50.7118 1003.29,-73.0185"/>
<polygon fill="black" stroke="black" points="1002.1,-76.309 1012.69,-76.6521 1004.62,-69.7803 1002.1,-76.309"/>
</g>
<!-- vertexdecl -->
<g id="node36" class="node"><title>vertexdecl</title>
<polygon fill="none" stroke="black" points="1085,-73.5 1085,-109.5 1159,-109.5 1159,-73.5 1085,-73.5"/>
<text text-anchor="middle" x="1122" y="-87.8" font-family="Times New Roman,serif" font-size="14.00">vertexdecl</text>
</g>
<!-- bgfx&#45;&gt;vertexdecl -->
<g id="edge35" class="edge"><title>bgfx&#45;&gt;vertexdecl</title>
<path fill="none" stroke="black" d="M851.193,-23.8537C896.083,-31.3432 988.555,-48.0474 1075.06,-72.9459"/>
<polygon fill="black" stroke="black" points="1074.18,-76.335 1084.76,-75.7805 1076.14,-69.616 1074.18,-76.335"/>
</g>
<!-- topology -->
<g id="node37" class="node"><title>topology</title>
<polygon fill="none" stroke="black" points="1177.5,-73.5 1177.5,-109.5 1244.5,-109.5 1244.5,-73.5 1177.5,-73.5"/>
<text text-anchor="middle" x="1211" y="-87.8" font-family="Times New Roman,serif" font-size="14.00">topology</text>
</g>
<!-- bgfx&#45;&gt;topology -->
<g id="edge36" class="edge"><title>bgfx&#45;&gt;topology</title>
<path fill="none" stroke="black" d="M851.213,-21.5717C908.412,-26.3812 1045.21,-40.2749 1167.55,-73.265"/>
<polygon fill="black" stroke="black" points="1166.89,-76.7122 1177.46,-75.9874 1168.74,-69.9624 1166.89,-76.7122"/>
</g>
<!-- vs_fs_bin -->
<g id="node38" class="node"><title>vs_fs_bin</title>
<polygon fill="none" stroke="black" points="1377,-73.5 1377,-109.5 1449,-109.5 1449,-73.5 1377,-73.5"/>
<text text-anchor="middle" x="1413" y="-87.8" font-family="Times New Roman,serif" font-size="14.00">vs_fs_bin</text>
</g>
<!-- bgfx&#45;&gt;vs_fs_bin -->
<g id="edge37" class="edge"><title>bgfx&#45;&gt;vs_fs_bin</title>
<path fill="none" stroke="black" d="M851.227,-22.7821C944.126,-33.9804 1249.33,-70.7703 1366.56,-84.9023"/>
<polygon fill="black" stroke="black" points="1366.31,-88.3966 1376.65,-86.1186 1367.14,-81.4469 1366.31,-88.3966"/>
</g>
<!-- tinystl -->
<g id="node50" class="node"><title>tinystl</title>
<polygon fill="none" stroke="black" points="1467,-73.5 1467,-109.5 1521,-109.5 1521,-73.5 1467,-73.5"/>
<text text-anchor="middle" x="1494" y="-87.8" font-family="Times New Roman,serif" font-size="14.00">tinystl</text>
</g>
<!-- bgfx&#45;&gt;tinystl -->
<g id="edge49" class="edge"><title>bgfx&#45;&gt;tinystl</title>
<path fill="none" stroke="black" d="M851.136,-20.4653C954.244,-24.3319 1322.26,-39.9946 1457.2,-73.4926"/>
<polygon fill="black" stroke="black" points="1456.33,-76.8812 1466.89,-76.041 1458.11,-70.1116 1456.33,-76.8812"/>
</g>
<!-- charset -->
<g id="node51" class="node"><title>charset</title>
<polygon fill="none" stroke="black" points="1539,-73.5 1539,-109.5 1595,-109.5 1595,-73.5 1539,-73.5"/>
<text text-anchor="middle" x="1567" y="-87.8" font-family="Times New Roman,serif" font-size="14.00">charset</text>
</g>
<!-- bgfx&#45;&gt;charset -->
<g id="edge50" class="edge"><title>bgfx&#45;&gt;charset</title>
<path fill="none" stroke="black" d="M851.072,-20.2332C961.504,-23.4218 1378.76,-37.4429 1528.8,-73.3494"/>
<polygon fill="black" stroke="black" points="1528.16,-76.7974 1538.71,-75.8592 1529.87,-70.0115 1528.16,-76.7974"/>
</g>
<!-- bimg -->
<g id="node55" class="node"><title>bimg</title>
<polygon fill="none" stroke="black" points="1797,-73.5 1797,-109.5 1851,-109.5 1851,-73.5 1797,-73.5"/>
<text text-anchor="middle" x="1824" y="-87.8" font-family="Times New Roman,serif" font-size="14.00">bimg</text>
</g>
<!-- bgfx&#45;&gt;bimg -->
<g id="edge54" class="edge"><title>bgfx&#45;&gt;bimg</title>
<path fill="none" stroke="black" d="M851.295,-21.2641C951.592,-27.7692 1309.24,-51.1688 1604,-73 1668.25,-77.7584 1743,-83.8152 1786.75,-87.4123"/>
<polygon fill="black" stroke="black" points="1786.66,-90.9168 1796.91,-88.2498 1787.23,-83.9404 1786.66,-90.9168"/>
</g>
<!-- macros -->
<g id="node6" class="node"><title>macros</title>
<polygon fill="none" stroke="black" points="267,-146.5 267,-182.5 325,-182.5 325,-146.5 267,-146.5"/>
<text text-anchor="middle" x="296" y="-160.8" font-family="Times New Roman,serif" font-size="14.00">macros</text>
</g>
<!-- embedded_shader&#45;&gt;macros -->
<g id="edge5" class="edge"><title>embedded_shader&#45;&gt;macros</title>
<path fill="none" stroke="black" d="M296,-109.687C296,-117.711 296,-127.453 296,-136.431"/>
<polygon fill="black" stroke="black" points="292.5,-136.471 296,-146.471 299.5,-136.471 292.5,-136.471"/>
</g>
<!-- bx -->
<g id="node7" class="node"><title>bx</title>
<polygon fill="none" stroke="black" points="269,-219.5 269,-255.5 323,-255.5 323,-219.5 269,-219.5"/>
<text text-anchor="middle" x="296" y="-233.8" font-family="Times New Roman,serif" font-size="14.00">bx</text>
</g>
<!-- macros&#45;&gt;bx -->
<g id="edge6" class="edge"><title>macros&#45;&gt;bx</title>
<path fill="none" stroke="black" d="M296,-182.687C296,-190.711 296,-200.453 296,-209.431"/>
<polygon fill="black" stroke="black" points="292.5,-209.471 296,-219.471 299.5,-209.471 292.5,-209.471"/>
</g>
<!-- debug -->
<g id="node8" class="node"><title>debug</title>
<polygon fill="none" stroke="black" points="233,-292.5 233,-328.5 287,-328.5 287,-292.5 233,-292.5"/>
<text text-anchor="middle" x="260" y="-306.8" font-family="Times New Roman,serif" font-size="14.00">debug</text>
</g>
<!-- bx&#45;&gt;debug -->
<g id="edge7" class="edge"><title>bx&#45;&gt;debug</title>
<path fill="none" stroke="black" d="M287.285,-255.687C283.085,-263.972 277.955,-274.09 273.281,-283.307"/>
<polygon fill="black" stroke="black" points="270.035,-281.969 268.634,-292.471 276.278,-285.135 270.035,-281.969"/>
</g>
<!-- config -->
<g id="node9" class="node"><title>config</title>
<polygon fill="none" stroke="black" points="305,-292.5 305,-328.5 359,-328.5 359,-292.5 305,-292.5"/>
<text text-anchor="middle" x="332" y="-306.8" font-family="Times New Roman,serif" font-size="14.00">config</text>
</g>
<!-- bx&#45;&gt;config -->
<g id="edge8" class="edge"><title>bx&#45;&gt;config</title>
<path fill="none" stroke="black" d="M304.715,-255.687C308.915,-263.972 314.045,-274.09 318.719,-283.307"/>
<polygon fill="black" stroke="black" points="315.722,-285.135 323.366,-292.471 321.965,-281.969 315.722,-285.135"/>
</g>
<!-- string -->
<g id="node10" class="node"><title>string</title>
<polygon fill="none" stroke="black" points="233,-365.5 233,-401.5 287,-401.5 287,-365.5 233,-365.5"/>
<text text-anchor="middle" x="260" y="-379.8" font-family="Times New Roman,serif" font-size="14.00">string</text>
</g>
<!-- debug&#45;&gt;string -->
<g id="edge9" class="edge"><title>debug&#45;&gt;string</title>
<path fill="none" stroke="black" d="M260,-328.687C260,-336.711 260,-346.453 260,-355.431"/>
<polygon fill="black" stroke="black" points="256.5,-355.471 260,-365.471 263.5,-355.471 256.5,-355.471"/>
</g>
<!-- allocator -->
<g id="node11" class="node"><title>allocator</title>
<polygon fill="none" stroke="black" points="149.5,-438.5 149.5,-474.5 214.5,-474.5 214.5,-438.5 149.5,-438.5"/>
<text text-anchor="middle" x="182" y="-452.8" font-family="Times New Roman,serif" font-size="14.00">allocator</text>
</g>
<!-- string&#45;&gt;allocator -->
<g id="edge10" class="edge"><title>string&#45;&gt;allocator</title>
<path fill="none" stroke="black" d="M241.118,-401.687C231.25,-410.67 219.015,-421.807 208.241,-431.614"/>
<polygon fill="black" stroke="black" points="205.747,-429.151 200.708,-438.471 210.459,-434.328 205.747,-429.151"/>
</g>
<!-- hash -->
<g id="node12" class="node"><title>hash</title>
<polygon fill="none" stroke="black" points="233,-438.5 233,-474.5 287,-474.5 287,-438.5 233,-438.5"/>
<text text-anchor="middle" x="260" y="-452.8" font-family="Times New Roman,serif" font-size="14.00">hash</text>
</g>
<!-- string&#45;&gt;hash -->
<g id="edge11" class="edge"><title>string&#45;&gt;hash</title>
<path fill="none" stroke="black" d="M260,-401.687C260,-409.711 260,-419.453 260,-428.431"/>
<polygon fill="black" stroke="black" points="256.5,-428.471 260,-438.471 263.5,-428.471 256.5,-428.471"/>
</g>
<!-- readerwriter -->
<g id="node13" class="node"><title>readerwriter</title>
<polygon fill="none" stroke="black" points="305.5,-438.5 305.5,-474.5 388.5,-474.5 388.5,-438.5 305.5,-438.5"/>
<text text-anchor="middle" x="347" y="-452.8" font-family="Times New Roman,serif" font-size="14.00">readerwriter</text>
</g>
<!-- string&#45;&gt;readerwriter -->
<g id="edge12" class="edge"><title>string&#45;&gt;readerwriter</title>
<path fill="none" stroke="black" d="M281.06,-401.687C292.174,-410.757 305.979,-422.023 318.081,-431.9"/>
<polygon fill="black" stroke="black" points="316.173,-434.86 326.134,-438.471 320.599,-429.437 316.173,-434.86"/>
</g>
<!-- endian -->
<g id="node14" class="node"><title>endian</title>
<polygon fill="none" stroke="black" points="174,-511.5 174,-547.5 228,-547.5 228,-511.5 174,-511.5"/>
<text text-anchor="middle" x="201" y="-525.8" font-family="Times New Roman,serif" font-size="14.00">endian</text>
</g>
<!-- readerwriter&#45;&gt;endian -->
<g id="edge13" class="edge"><title>readerwriter&#45;&gt;endian</title>
<path fill="none" stroke="black" d="M312.029,-474.506C289.489,-485.468 260.238,-499.693 237.418,-510.79"/>
<polygon fill="black" stroke="black" points="235.849,-507.661 228.387,-515.182 238.91,-513.956 235.849,-507.661"/>
</g>
<!-- error -->
<g id="node15" class="node"><title>error</title>
<polygon fill="none" stroke="black" points="246,-511.5 246,-547.5 300,-547.5 300,-511.5 246,-511.5"/>
<text text-anchor="middle" x="273" y="-525.8" font-family="Times New Roman,serif" font-size="14.00">error</text>
</g>
<!-- readerwriter&#45;&gt;error -->
<g id="edge14" class="edge"><title>readerwriter&#45;&gt;error</title>
<path fill="none" stroke="black" d="M329.087,-474.687C319.815,-483.583 308.342,-494.591 298.193,-504.328"/>
<polygon fill="black" stroke="black" points="295.541,-502.022 290.748,-511.471 300.387,-507.073 295.541,-502.022"/>
</g>
<!-- filepath -->
<g id="node16" class="node"><title>filepath</title>
<polygon fill="none" stroke="black" points="318.5,-511.5 318.5,-547.5 375.5,-547.5 375.5,-511.5 318.5,-511.5"/>
<text text-anchor="middle" x="347" y="-525.8" font-family="Times New Roman,serif" font-size="14.00">filepath</text>
</g>
<!-- readerwriter&#45;&gt;filepath -->
<g id="edge15" class="edge"><title>readerwriter&#45;&gt;filepath</title>
<path fill="none" stroke="black" d="M347,-474.687C347,-482.711 347,-492.453 347,-501.431"/>
<polygon fill="black" stroke="black" points="343.5,-501.471 347,-511.471 350.5,-501.471 343.5,-501.471"/>
</g>
<!-- uint32_t -->
<g id="node17" class="node"><title>uint32_t</title>
<polygon fill="none" stroke="black" points="394,-511.5 394,-547.5 456,-547.5 456,-511.5 394,-511.5"/>
<text text-anchor="middle" x="425" y="-525.8" font-family="Times New Roman,serif" font-size="14.00">uint32_t</text>
</g>
<!-- readerwriter&#45;&gt;uint32_t -->
<g id="edge16" class="edge"><title>readerwriter&#45;&gt;uint32_t</title>
<path fill="none" stroke="black" d="M365.882,-474.687C375.75,-483.67 387.985,-494.807 398.759,-504.614"/>
<polygon fill="black" stroke="black" points="396.541,-507.328 406.292,-511.471 401.253,-502.151 396.541,-507.328"/>
</g>
<!-- math -->
<g id="node18" class="node"><title>math</title>
<polygon fill="none" stroke="black" points="474,-511.5 474,-547.5 528,-547.5 528,-511.5 474,-511.5"/>
<text text-anchor="middle" x="501" y="-525.8" font-family="Times New Roman,serif" font-size="14.00">math</text>
</g>
<!-- readerwriter&#45;&gt;math -->
<g id="edge17" class="edge"><title>readerwriter&#45;&gt;math</title>
<path fill="none" stroke="black" d="M385.382,-474.589C406.438,-484.035 433.194,-496.151 464.506,-510.818"/>
<polygon fill="black" stroke="black" points="463.371,-514.152 473.911,-515.235 466.347,-507.816 463.371,-514.152"/>
</g>
<!-- file -->
<g id="node25" class="node"><title>file</title>
<polygon fill="none" stroke="black" points="284,-584.5 284,-620.5 338,-620.5 338,-584.5 284,-584.5"/>
<text text-anchor="middle" x="311" y="-598.8" font-family="Times New Roman,serif" font-size="14.00">file</text>
</g>
<!-- filepath&#45;&gt;file -->
<g id="edge24" class="edge"><title>filepath&#45;&gt;file</title>
<path fill="none" stroke="black" d="M338.285,-547.687C334.085,-555.972 328.955,-566.09 324.281,-575.307"/>
<polygon fill="black" stroke="black" points="321.035,-573.969 319.634,-584.471 327.278,-577.135 321.035,-573.969"/>
</g>
<!-- os -->
<g id="node26" class="node"><title>os</title>
<polygon fill="none" stroke="black" points="356,-584.5 356,-620.5 410,-620.5 410,-584.5 356,-584.5"/>
<text text-anchor="middle" x="383" y="-598.8" font-family="Times New Roman,serif" font-size="14.00">os</text>
</g>
<!-- filepath&#45;&gt;os -->
<g id="edge25" class="edge"><title>filepath&#45;&gt;os</title>
<path fill="none" stroke="black" d="M355.715,-547.687C359.915,-555.972 365.045,-566.09 369.719,-575.307"/>
<polygon fill="black" stroke="black" points="366.722,-577.135 374.366,-584.471 372.965,-573.969 366.722,-577.135"/>
</g>
<!-- simd_t -->
<g id="node19" class="node"><title>simd_t</title>
<polygon fill="none" stroke="black" points="473.5,-584.5 473.5,-620.5 528.5,-620.5 528.5,-584.5 473.5,-584.5"/>
<text text-anchor="middle" x="501" y="-598.8" font-family="Times New Roman,serif" font-size="14.00">simd_t</text>
</g>
<!-- math&#45;&gt;simd_t -->
<g id="edge18" class="edge"><title>math&#45;&gt;simd_t</title>
<path fill="none" stroke="black" d="M501,-547.687C501,-555.711 501,-565.453 501,-574.431"/>
<polygon fill="black" stroke="black" points="497.5,-574.471 501,-584.471 504.5,-574.471 497.5,-574.471"/>
</g>
<!-- simd128_swizzle -->
<g id="node20" class="node"><title>simd128_swizzle</title>
<polygon fill="none" stroke="black" points="221.5,-657.5 221.5,-693.5 332.5,-693.5 332.5,-657.5 221.5,-657.5"/>
<text text-anchor="middle" x="277" y="-671.8" font-family="Times New Roman,serif" font-size="14.00">simd128_swizzle</text>
</g>
<!-- simd_t&#45;&gt;simd128_swizzle -->
<g id="edge19" class="edge"><title>simd_t&#45;&gt;simd128_swizzle</title>
<path fill="none" stroke="black" d="M473.083,-612.349C440.155,-622.786 384.376,-640.466 340.71,-654.306"/>
<polygon fill="black" stroke="black" points="339.501,-651.018 331.026,-657.376 341.616,-657.691 339.501,-651.018"/>
</g>
<!-- simd128_sse -->
<g id="node21" class="node"><title>simd128_sse</title>
<polygon fill="none" stroke="black" points="350.5,-657.5 350.5,-693.5 439.5,-693.5 439.5,-657.5 350.5,-657.5"/>
<text text-anchor="middle" x="395" y="-671.8" font-family="Times New Roman,serif" font-size="14.00">simd128_sse</text>
</g>
<!-- simd_t&#45;&gt;simd128_sse -->
<g id="edge20" class="edge"><title>simd_t&#45;&gt;simd128_sse</title>
<path fill="none" stroke="black" d="M475.61,-620.506C461.684,-629.834 444.229,-641.526 429.126,-651.642"/>
<polygon fill="black" stroke="black" points="426.91,-648.913 420.55,-657.386 430.806,-654.729 426.91,-648.913"/>
</g>
<!-- simd128_ref -->
<g id="node22" class="node"><title>simd128_ref</title>
<polygon fill="none" stroke="black" points="458,-657.5 458,-693.5 544,-693.5 544,-657.5 458,-657.5"/>
<text text-anchor="middle" x="501" y="-671.8" font-family="Times New Roman,serif" font-size="14.00">simd128_ref</text>
</g>
<!-- simd_t&#45;&gt;simd128_ref -->
<g id="edge21" class="edge"><title>simd_t&#45;&gt;simd128_ref</title>
<path fill="none" stroke="black" d="M501,-620.687C501,-628.711 501,-638.453 501,-647.431"/>
<polygon fill="black" stroke="black" points="497.5,-647.471 501,-657.471 504.5,-647.471 497.5,-647.471"/>
</g>
<!-- simd256_ref -->
<g id="node23" class="node"><title>simd256_ref</title>
<polygon fill="none" stroke="black" points="562,-657.5 562,-693.5 648,-693.5 648,-657.5 562,-657.5"/>
<text text-anchor="middle" x="605" y="-671.8" font-family="Times New Roman,serif" font-size="14.00">simd256_ref</text>
</g>
<!-- simd_t&#45;&gt;simd256_ref -->
<g id="edge22" class="edge"><title>simd_t&#45;&gt;simd256_ref</title>
<path fill="none" stroke="black" d="M525.911,-620.506C539.574,-629.834 556.7,-641.526 571.518,-651.642"/>
<polygon fill="black" stroke="black" points="569.7,-654.639 579.932,-657.386 573.647,-648.857 569.7,-654.639"/>
</g>
<!-- simd_ni -->
<g id="node24" class="node"><title>simd_ni</title>
<polygon fill="none" stroke="black" points="666.5,-657.5 666.5,-693.5 727.5,-693.5 727.5,-657.5 666.5,-657.5"/>
<text text-anchor="middle" x="697" y="-671.8" font-family="Times New Roman,serif" font-size="14.00">simd_ni</text>
</g>
<!-- simd_t&#45;&gt;simd_ni -->
<g id="edge23" class="edge"><title>simd_t&#45;&gt;simd_ni</title>
<path fill="none" stroke="black" d="M528.581,-612.201C558.112,-621.682 606.484,-637.682 656.702,-657.03"/>
<polygon fill="black" stroke="black" points="655.507,-660.321 666.096,-660.681 658.043,-653.796 655.507,-660.321"/>
</g>
<!-- mpscqueue -->
<g id="node58" class="node"><title>mpscqueue</title>
<polygon fill="none" stroke="black" points="604,-146.5 604,-182.5 684,-182.5 684,-146.5 604,-146.5"/>
<text text-anchor="middle" x="644" y="-160.8" font-family="Times New Roman,serif" font-size="14.00">mpscqueue</text>
</g>
<!-- thread&#45;&gt;mpscqueue -->
<g id="edge57" class="edge"><title>thread&#45;&gt;mpscqueue</title>
<path fill="none" stroke="black" d="M868.771,-106.574C865.851,-107.83 862.89,-109.002 860,-110 791.173,-133.76 767.924,-125.916 694.011,-145.932"/>
<polygon fill="black" stroke="black" points="692.933,-142.599 684.241,-148.658 694.814,-149.341 692.933,-142.599"/>
</g>
<!-- shader_dxbc -->
<g id="node52" class="node"><title>shader_dxbc</title>
<polygon fill="none" stroke="black" points="702.5,-146.5 702.5,-182.5 791.5,-182.5 791.5,-146.5 702.5,-146.5"/>
<text text-anchor="middle" x="747" y="-160.8" font-family="Times New Roman,serif" font-size="14.00">shader_dxbc</text>
</g>
<!-- shader&#45;&gt;shader_dxbc -->
<g id="edge51" class="edge"><title>shader&#45;&gt;shader_dxbc</title>
<path fill="none" stroke="black" d="M1012.81,-106.684C1009.88,-107.919 1006.91,-109.056 1004,-110 919.829,-137.334 891.818,-124.763 801.482,-146.108"/>
<polygon fill="black" stroke="black" points="800.538,-142.736 791.652,-148.505 802.196,-149.536 800.538,-142.736"/>
</g>
<!-- shader_dx9bc -->
<g id="node53" class="node"><title>shader_dx9bc</title>
<polygon fill="none" stroke="black" points="810,-146.5 810,-182.5 906,-182.5 906,-146.5 810,-146.5"/>
<text text-anchor="middle" x="858" y="-160.8" font-family="Times New Roman,serif" font-size="14.00">shader_dx9bc</text>
</g>
<!-- shader&#45;&gt;shader_dx9bc -->
<g id="edge52" class="edge"><title>shader&#45;&gt;shader_dx9bc</title>
<path fill="none" stroke="black" d="M1012.61,-106.166C1009.72,-107.502 1006.81,-108.804 1004,-110 975.345,-122.178 942.875,-134.242 915.844,-143.823"/>
<polygon fill="black" stroke="black" points="914.419,-140.614 906.149,-147.236 916.743,-147.217 914.419,-140.614"/>
</g>
<!-- shader_spirv -->
<g id="node54" class="node"><title>shader_spirv</title>
<polygon fill="none" stroke="black" points="924.5,-146.5 924.5,-182.5 1013.5,-182.5 1013.5,-146.5 924.5,-146.5"/>
<text text-anchor="middle" x="969" y="-160.8" font-family="Times New Roman,serif" font-size="14.00">shader_spirv</text>
</g>
<!-- shader&#45;&gt;shader_spirv -->
<g id="edge53" class="edge"><title>shader&#45;&gt;shader_spirv</title>
<path fill="none" stroke="black" d="M1022.81,-109.687C1013.92,-118.583 1002.91,-129.591 993.172,-139.328"/>
<polygon fill="black" stroke="black" points="990.625,-136.925 986.029,-146.471 995.575,-141.875 990.625,-136.925"/>
</g>
<!-- vs_debugfont -->
<g id="node39" class="node"><title>vs_debugfont</title>
<polygon fill="none" stroke="black" points="1032,-146.5 1032,-182.5 1126,-182.5 1126,-146.5 1032,-146.5"/>
<text text-anchor="middle" x="1079" y="-160.8" font-family="Times New Roman,serif" font-size="14.00">vs_debugfont</text>
</g>
<!-- vs_fs_bin&#45;&gt;vs_debugfont -->
<g id="edge38" class="edge"><title>vs_fs_bin&#45;&gt;vs_debugfont</title>
<path fill="none" stroke="black" d="M1376.73,-98.1381C1325.2,-106.439 1227.75,-123.214 1135.97,-145.893"/>
<polygon fill="black" stroke="black" points="1135.1,-142.502 1126.25,-148.323 1136.8,-149.293 1135.1,-142.502"/>
</g>
<!-- fs_debugfont -->
<g id="node40" class="node"><title>fs_debugfont</title>
<polygon fill="none" stroke="black" points="1144,-146.5 1144,-182.5 1236,-182.5 1236,-146.5 1144,-146.5"/>
<text text-anchor="middle" x="1190" y="-160.8" font-family="Times New Roman,serif" font-size="14.00">fs_debugfont</text>
</g>
<!-- vs_fs_bin&#45;&gt;fs_debugfont -->
<g id="edge39" class="edge"><title>vs_fs_bin&#45;&gt;fs_debugfont</title>
<path fill="none" stroke="black" d="M1376.67,-104.065C1341.26,-115.343 1286.89,-132.651 1245.95,-145.687"/>
<polygon fill="black" stroke="black" points="1244.84,-142.365 1236.38,-148.734 1246.97,-149.035 1244.84,-142.365"/>
</g>
<!-- vs_clear -->
<g id="node41" class="node"><title>vs_clear</title>
<polygon fill="none" stroke="black" points="1254.5,-146.5 1254.5,-182.5 1317.5,-182.5 1317.5,-146.5 1254.5,-146.5"/>
<text text-anchor="middle" x="1286" y="-160.8" font-family="Times New Roman,serif" font-size="14.00">vs_clear</text>
</g>
<!-- vs_fs_bin&#45;&gt;vs_clear -->
<g id="edge40" class="edge"><title>vs_fs_bin&#45;&gt;vs_clear</title>
<path fill="none" stroke="black" d="M1382.58,-109.506C1365.43,-119.096 1343.81,-131.183 1325.37,-141.489"/>
<polygon fill="black" stroke="black" points="1323.63,-138.452 1316.61,-146.386 1327.05,-144.562 1323.63,-138.452"/>
</g>
<!-- fs_clear0 -->
<g id="node42" class="node"><title>fs_clear0</title>
<polygon fill="none" stroke="black" points="1336,-146.5 1336,-182.5 1404,-182.5 1404,-146.5 1336,-146.5"/>
<text text-anchor="middle" x="1370" y="-160.8" font-family="Times New Roman,serif" font-size="14.00">fs_clear0</text>
</g>
<!-- vs_fs_bin&#45;&gt;fs_clear0 -->
<g id="edge41" class="edge"><title>vs_fs_bin&#45;&gt;fs_clear0</title>
<path fill="none" stroke="black" d="M1402.59,-109.687C1397.47,-118.147 1391.19,-128.516 1385.51,-137.888"/>
<polygon fill="black" stroke="black" points="1382.5,-136.104 1380.31,-146.471 1388.49,-139.731 1382.5,-136.104"/>
</g>
<!-- fs_clear1 -->
<g id="node43" class="node"><title>fs_clear1</title>
<polygon fill="none" stroke="black" points="1422,-146.5 1422,-182.5 1490,-182.5 1490,-146.5 1422,-146.5"/>
<text text-anchor="middle" x="1456" y="-160.8" font-family="Times New Roman,serif" font-size="14.00">fs_clear1</text>
</g>
<!-- vs_fs_bin&#45;&gt;fs_clear1 -->
<g id="edge42" class="edge"><title>vs_fs_bin&#45;&gt;fs_clear1</title>
<path fill="none" stroke="black" d="M1423.41,-109.687C1428.53,-118.147 1434.81,-128.516 1440.49,-137.888"/>
<polygon fill="black" stroke="black" points="1437.51,-139.731 1445.69,-146.471 1443.5,-136.104 1437.51,-139.731"/>
</g>
<!-- fs_clear2 -->
<g id="node44" class="node"><title>fs_clear2</title>
<polygon fill="none" stroke="black" points="1508,-146.5 1508,-182.5 1576,-182.5 1576,-146.5 1508,-146.5"/>
<text text-anchor="middle" x="1542" y="-160.8" font-family="Times New Roman,serif" font-size="14.00">fs_clear2</text>
</g>
<!-- vs_fs_bin&#45;&gt;fs_clear2 -->
<g id="edge43" class="edge"><title>vs_fs_bin&#45;&gt;fs_clear2</title>
<path fill="none" stroke="black" d="M1443.9,-109.506C1461.32,-119.096 1483.28,-131.183 1502.01,-141.489"/>
<polygon fill="black" stroke="black" points="1500.46,-144.631 1510.91,-146.386 1503.83,-138.498 1500.46,-144.631"/>
</g>
<!-- fs_clear3 -->
<g id="node45" class="node"><title>fs_clear3</title>
<polygon fill="none" stroke="black" points="1594,-146.5 1594,-182.5 1662,-182.5 1662,-146.5 1594,-146.5"/>
<text text-anchor="middle" x="1628" y="-160.8" font-family="Times New Roman,serif" font-size="14.00">fs_clear3</text>
</g>
<!-- vs_fs_bin&#45;&gt;fs_clear3 -->
<g id="edge44" class="edge"><title>vs_fs_bin&#45;&gt;fs_clear3</title>
<path fill="none" stroke="black" d="M1449.24,-106.933C1452.19,-108.005 1455.14,-109.041 1458,-110 1510.69,-127.669 1527.74,-127.04 1584.07,-145.877"/>
<polygon fill="black" stroke="black" points="1583.27,-149.299 1593.86,-149.21 1585.52,-142.673 1583.27,-149.299"/>
</g>
<!-- fs_clear4 -->
<g id="node46" class="node"><title>fs_clear4</title>
<polygon fill="none" stroke="black" points="1680,-146.5 1680,-182.5 1748,-182.5 1748,-146.5 1680,-146.5"/>
<text text-anchor="middle" x="1714" y="-160.8" font-family="Times New Roman,serif" font-size="14.00">fs_clear4</text>
</g>
<!-- vs_fs_bin&#45;&gt;fs_clear4 -->
<g id="edge45" class="edge"><title>vs_fs_bin&#45;&gt;fs_clear4</title>
<path fill="none" stroke="black" d="M1449.14,-107.281C1452.11,-108.275 1455.09,-109.198 1458,-110 1547.48,-134.683 1576.71,-120.75 1670.11,-146.109"/>
<polygon fill="black" stroke="black" points="1669.4,-149.543 1679.97,-148.864 1671.28,-142.801 1669.4,-149.543"/>
</g>
<!-- fs_clear5 -->
<g id="node47" class="node"><title>fs_clear5</title>
<polygon fill="none" stroke="black" points="1766,-146.5 1766,-182.5 1834,-182.5 1834,-146.5 1766,-146.5"/>
<text text-anchor="middle" x="1800" y="-160.8" font-family="Times New Roman,serif" font-size="14.00">fs_clear5</text>
</g>
<!-- vs_fs_bin&#45;&gt;fs_clear5 -->
<g id="edge46" class="edge"><title>vs_fs_bin&#45;&gt;fs_clear5</title>
<path fill="none" stroke="black" d="M1449.09,-107.435C1452.08,-108.394 1455.07,-109.267 1458,-110 1584.67,-141.719 1625.43,-113.904 1755.59,-146.025"/>
<polygon fill="black" stroke="black" points="1754.98,-149.481 1765.54,-148.551 1756.71,-142.696 1754.98,-149.481"/>
</g>
<!-- fs_clear6 -->
<g id="node48" class="node"><title>fs_clear6</title>
<polygon fill="none" stroke="black" points="1852,-146.5 1852,-182.5 1920,-182.5 1920,-146.5 1852,-146.5"/>
<text text-anchor="middle" x="1886" y="-160.8" font-family="Times New Roman,serif" font-size="14.00">fs_clear6</text>
</g>
<!-- vs_fs_bin&#45;&gt;fs_clear6 -->
<g id="edge47" class="edge"><title>vs_fs_bin&#45;&gt;fs_clear6</title>
<path fill="none" stroke="black" d="M1449.07,-107.521C1452.06,-108.461 1455.06,-109.306 1458,-110 1622.07,-148.772 1674.09,-106.829 1841.66,-146.089"/>
<polygon fill="black" stroke="black" points="1841.02,-149.532 1851.56,-148.468 1842.65,-142.726 1841.02,-149.532"/>
</g>
<!-- fs_clear7 -->
<g id="node49" class="node"><title>fs_clear7</title>
<polygon fill="none" stroke="black" points="1938,-146.5 1938,-182.5 2006,-182.5 2006,-146.5 1938,-146.5"/>
<text text-anchor="middle" x="1972" y="-160.8" font-family="Times New Roman,serif" font-size="14.00">fs_clear7</text>
</g>
<!-- vs_fs_bin&#45;&gt;fs_clear7 -->
<g id="edge48" class="edge"><title>vs_fs_bin&#45;&gt;fs_clear7</title>
<path fill="none" stroke="black" d="M1449.06,-107.577C1452.05,-108.504 1455.06,-109.331 1458,-110 1659.52,-155.823 1722.68,-99.6609 1927.7,-146.124"/>
<polygon fill="black" stroke="black" points="1927.04,-149.564 1937.57,-148.415 1928.62,-142.745 1927.04,-149.564"/>
</g>
<!-- image -->
<g id="node56" class="node"><title>image</title>
<polygon fill="none" stroke="black" points="2024,-146.5 2024,-182.5 2078,-182.5 2078,-146.5 2024,-146.5"/>
<text text-anchor="middle" x="2051" y="-160.8" font-family="Times New Roman,serif" font-size="14.00">image</text>
</g>
<!-- bimg&#45;&gt;image -->
<g id="edge55" class="edge"><title>bimg&#45;&gt;image</title>
<path fill="none" stroke="black" d="M1851.06,-98.4603C1886.69,-106.654 1951.31,-122.701 2014.06,-145.966"/>
<polygon fill="black" stroke="black" points="2013.11,-149.35 2023.71,-149.606 2015.59,-142.8 2013.11,-149.35"/>
</g>
<!-- pixelformat -->
<g id="node57" class="node"><title>pixelformat</title>
<polygon fill="none" stroke="black" points="2011,-219.5 2011,-255.5 2091,-255.5 2091,-219.5 2011,-219.5"/>
<text text-anchor="middle" x="2051" y="-233.8" font-family="Times New Roman,serif" font-size="14.00">pixelformat</text>
</g>
<!-- image&#45;&gt;pixelformat -->
<g id="edge56" class="edge"><title>image&#45;&gt;pixelformat</title>
<path fill="none" stroke="black" d="M2051,-182.687C2051,-190.711 2051,-200.453 2051,-209.431"/>
<polygon fill="black" stroke="black" points="2047.5,-209.471 2051,-219.471 2054.5,-209.471 2047.5,-209.471"/>
</g>
<!-- spscqueue -->
<g id="node59" class="node"><title>spscqueue</title>
<polygon fill="none" stroke="black" points="606,-219.5 606,-255.5 682,-255.5 682,-219.5 606,-219.5"/>
<text text-anchor="middle" x="644" y="-233.8" font-family="Times New Roman,serif" font-size="14.00">spscqueue</text>
</g>
<!-- mpscqueue&#45;&gt;spscqueue -->
<g id="edge58" class="edge"><title>mpscqueue&#45;&gt;spscqueue</title>
<path fill="none" stroke="black" d="M644,-182.687C644,-190.711 644,-200.453 644,-209.431"/>
<polygon fill="black" stroke="black" points="640.5,-209.471 644,-219.471 647.5,-209.471 640.5,-209.471"/>
</g>
<!-- semaphore -->
<g id="node60" class="node"><title>semaphore</title>
<polygon fill="none" stroke="black" points="605.5,-292.5 605.5,-328.5 682.5,-328.5 682.5,-292.5 605.5,-292.5"/>
<text text-anchor="middle" x="644" y="-306.8" font-family="Times New Roman,serif" font-size="14.00">semaphore</text>
</g>
<!-- spscqueue&#45;&gt;semaphore -->
<g id="edge59" class="edge"><title>spscqueue&#45;&gt;semaphore</title>
<path fill="none" stroke="black" d="M644,-255.687C644,-263.711 644,-273.453 644,-282.431"/>
<polygon fill="black" stroke="black" points="640.5,-282.471 644,-292.471 647.5,-282.471 640.5,-282.471"/>
</g>
</g>
</svg>
