<?xml version="1.0" encoding="UTF-8" standalone="no"?>
<!DOCTYPE svg PUBLIC "-//W3C//DTD SVG 1.1//EN"
 "http://www.w3.org/Graphics/SVG/1.1/DTD/svg11.dtd">
<!-- Generated by graphviz version 2.38.0 (20140413.2041)
 -->
<!-- Title: tinysfml Pages: 1 -->
<svg width="946pt" height="337pt"
 viewBox="0.00 0.00 945.50 337.00" xmlns="http://www.w3.org/2000/svg" xmlns:xlink="http://www.w3.org/1999/xlink">
<g id="graph0" class="graph" transform="scale(1 1) rotate(0) translate(4 333)">
<title>tinysfml</title>
<polygon fill="white" stroke="none" points="-4,4 -4,-333 941.5,-333 941.5,4 -4,4"/>
<!-- WindowBase -->
<g id="node1" class="node"><title>WindowBase</title>
<polygon fill="none" stroke="black" points="318.5,-0.5 318.5,-36.5 410.5,-36.5 410.5,-0.5 318.5,-0.5"/>
<text text-anchor="middle" x="364.5" y="-14.8" font-family="Times New Roman,serif" font-size="14.00">WindowBase</text>
</g>
<!-- Cursor -->
<g id="node2" class="node"><title>Cursor</title>
<polygon fill="none" stroke="black" points="20.5,-73.5 20.5,-109.5 76.5,-109.5 76.5,-73.5 20.5,-73.5"/>
<text text-anchor="middle" x="48.5" y="-87.8" font-family="Times New Roman,serif" font-size="14.00">Cursor</text>
</g>
<!-- WindowBase&#45;&gt;Cursor -->
<g id="edge1" class="edge"><title>WindowBase&#45;&gt;Cursor</title>
<path fill="none" stroke="black" d="M318.032,-25.4809C262.757,-33.2923 168.081,-48.8829 89.5,-73 88.4642,-73.3179 87.419,-73.6534 86.3687,-74.0035"/>
<polygon fill="black" stroke="black" points="85.0738,-70.7503 76.886,-77.4742 87.4798,-77.3239 85.0738,-70.7503"/>
</g>
<!-- Vector2 -->
<g id="node3" class="node"><title>Vector2</title>
<polygon fill="none" stroke="black" points="98.5,-73.5 98.5,-109.5 160.5,-109.5 160.5,-73.5 98.5,-73.5"/>
<text text-anchor="middle" x="129.5" y="-87.8" font-family="Times New Roman,serif" font-size="14.00">Vector2</text>
</g>
<!-- WindowBase&#45;&gt;Vector2 -->
<g id="edge2" class="edge"><title>WindowBase&#45;&gt;Vector2</title>
<path fill="none" stroke="black" d="M318.217,-30.1937C280.518,-39.3517 225.854,-53.6466 170.4,-72.9144"/>
<polygon fill="black" stroke="black" points="169.039,-69.6831 160.771,-76.3083 171.366,-76.285 169.039,-69.6831"/>
</g>
<!-- Clock -->
<g id="node4" class="node"><title>Clock</title>
<polygon fill="none" stroke="black" points="178.5,-73.5 178.5,-109.5 232.5,-109.5 232.5,-73.5 178.5,-73.5"/>
<text text-anchor="middle" x="205.5" y="-87.8" font-family="Times New Roman,serif" font-size="14.00">Clock</text>
</g>
<!-- WindowBase&#45;&gt;Clock -->
<g id="edge3" class="edge"><title>WindowBase&#45;&gt;Clock</title>
<path fill="none" stroke="black" d="M324.148,-36.5434C302.119,-45.9629 274.196,-58.0873 241.818,-72.9314"/>
<polygon fill="black" stroke="black" points="240.188,-69.8286 232.569,-77.1903 243.116,-76.1869 240.188,-69.8286"/>
</g>
<!-- String -->
<g id="node5" class="node"><title>String</title>
<polygon fill="none" stroke="black" points="250.5,-73.5 250.5,-109.5 304.5,-109.5 304.5,-73.5 250.5,-73.5"/>
<text text-anchor="middle" x="277.5" y="-87.8" font-family="Times New Roman,serif" font-size="14.00">String</text>
</g>
<!-- WindowBase&#45;&gt;String -->
<g id="edge4" class="edge"><title>WindowBase&#45;&gt;String</title>
<path fill="none" stroke="black" d="M343.44,-36.6871C332.326,-45.757 318.521,-57.0231 306.419,-66.8996"/>
<polygon fill="black" stroke="black" points="303.901,-64.4368 298.366,-73.4712 308.327,-69.8601 303.901,-64.4368"/>
</g>
<!-- VideoMode -->
<g id="node6" class="node"><title>VideoMode</title>
<polygon fill="none" stroke="black" points="323,-73.5 323,-109.5 406,-109.5 406,-73.5 323,-73.5"/>
<text text-anchor="middle" x="364.5" y="-87.8" font-family="Times New Roman,serif" font-size="14.00">VideoMode</text>
</g>
<!-- WindowBase&#45;&gt;VideoMode -->
<g id="edge5" class="edge"><title>WindowBase&#45;&gt;VideoMode</title>
<path fill="none" stroke="black" d="M364.5,-36.6871C364.5,-44.7105 364.5,-54.4525 364.5,-63.4309"/>
<polygon fill="black" stroke="black" points="361,-63.4711 364.5,-73.4712 368,-63.4712 361,-63.4711"/>
</g>
<!-- WindowHandle -->
<g id="node7" class="node"><title>WindowHandle</title>
<polygon fill="none" stroke="black" points="424.5,-73.5 424.5,-109.5 528.5,-109.5 528.5,-73.5 424.5,-73.5"/>
<text text-anchor="middle" x="476.5" y="-87.8" font-family="Times New Roman,serif" font-size="14.00">WindowHandle</text>
</g>
<!-- WindowBase&#45;&gt;WindowHandle -->
<g id="edge6" class="edge"><title>WindowBase&#45;&gt;WindowHandle</title>
<path fill="none" stroke="black" d="M391.327,-36.5063C406.179,-45.9215 424.829,-57.7446 440.889,-67.9252"/>
<polygon fill="black" stroke="black" points="439.184,-70.9883 449.504,-73.3864 442.932,-65.0762 439.184,-70.9883"/>
</g>
<!-- WindowStyle -->
<g id="node8" class="node"><title>WindowStyle</title>
<polygon fill="none" stroke="black" points="546.5,-73.5 546.5,-109.5 638.5,-109.5 638.5,-73.5 546.5,-73.5"/>
<text text-anchor="middle" x="592.5" y="-87.8" font-family="Times New Roman,serif" font-size="14.00">WindowStyle</text>
</g>
<!-- WindowBase&#45;&gt;WindowStyle -->
<g id="edge7" class="edge"><title>WindowBase&#45;&gt;WindowStyle</title>
<path fill="none" stroke="black" d="M410.791,-33.7037C443.472,-43.7567 488.541,-57.6709 536.638,-72.74"/>
<polygon fill="black" stroke="black" points="535.706,-76.1158 546.295,-75.7685 537.801,-69.4365 535.706,-76.1158"/>
</g>
<!-- WindowImpl -->
<g id="node9" class="node"><title>WindowImpl</title>
<polygon fill="none" stroke="black" points="656.5,-73.5 656.5,-109.5 746.5,-109.5 746.5,-73.5 656.5,-73.5"/>
<text text-anchor="middle" x="701.5" y="-87.8" font-family="Times New Roman,serif" font-size="14.00">WindowImpl</text>
</g>
<!-- WindowBase&#45;&gt;WindowImpl -->
<g id="edge8" class="edge"><title>WindowBase&#45;&gt;WindowImpl</title>
<path fill="none" stroke="black" d="M410.971,-26.4332C465.33,-34.9521 558.13,-50.7643 646.349,-72.8638"/>
<polygon fill="black" stroke="black" points="645.695,-76.3087 656.248,-75.3756 647.416,-69.5237 645.695,-76.3087"/>
</g>
<!-- ContextSettings -->
<g id="node10" class="node"><title>ContextSettings</title>
<polygon fill="none" stroke="black" points="765,-73.5 765,-109.5 870,-109.5 870,-73.5 765,-73.5"/>
<text text-anchor="middle" x="817.5" y="-87.8" font-family="Times New Roman,serif" font-size="14.00">ContextSettings</text>
</g>
<!-- WindowBase&#45;&gt;ContextSettings -->
<g id="edge9" class="edge"><title>WindowBase&#45;&gt;ContextSettings</title>
<path fill="none" stroke="black" d="M410.602,-23.7095C482.223,-30.7064 624.62,-46.4441 754.717,-73.0052"/>
<polygon fill="black" stroke="black" points="754.356,-76.5047 764.858,-75.1032 755.775,-69.6499 754.356,-76.5047"/>
</g>
<!-- CursorImpl -->
<g id="node24" class="node"><title>CursorImpl</title>
<polygon fill="none" stroke="black" points="0,-146.5 0,-182.5 81,-182.5 81,-146.5 0,-146.5"/>
<text text-anchor="middle" x="40.5" y="-160.8" font-family="Times New Roman,serif" font-size="14.00">CursorImpl</text>
</g>
<!-- Cursor&#45;&gt;CursorImpl -->
<g id="edge24" class="edge"><title>Cursor&#45;&gt;CursorImpl</title>
<path fill="none" stroke="black" d="M46.5634,-109.687C45.6594,-117.711 44.5617,-127.453 43.55,-136.431"/>
<polygon fill="black" stroke="black" points="40.0605,-136.142 42.4187,-146.471 47.0165,-136.926 40.0605,-136.142"/>
</g>
<!-- Time -->
<g id="node27" class="node"><title>Time</title>
<polygon fill="none" stroke="black" points="99.5,-146.5 99.5,-182.5 153.5,-182.5 153.5,-146.5 99.5,-146.5"/>
<text text-anchor="middle" x="126.5" y="-160.8" font-family="Times New Roman,serif" font-size="14.00">Time</text>
</g>
<!-- Clock&#45;&gt;Time -->
<g id="edge27" class="edge"><title>Clock&#45;&gt;Time</title>
<path fill="none" stroke="black" d="M186.376,-109.687C176.381,-118.67 163.99,-129.807 153.077,-139.614"/>
<polygon fill="black" stroke="black" points="150.546,-137.184 145.448,-146.471 155.225,-142.39 150.546,-137.184"/>
</g>
<!-- ClockImpl -->
<g id="node28" class="node"><title>ClockImpl</title>
<polygon fill="none" stroke="black" points="171.5,-146.5 171.5,-182.5 247.5,-182.5 247.5,-146.5 171.5,-146.5"/>
<text text-anchor="middle" x="209.5" y="-160.8" font-family="Times New Roman,serif" font-size="14.00">ClockImpl</text>
</g>
<!-- Clock&#45;&gt;ClockImpl -->
<g id="edge28" class="edge"><title>Clock&#45;&gt;ClockImpl</title>
<path fill="none" stroke="black" d="M206.468,-109.687C206.92,-117.711 207.469,-127.453 207.975,-136.431"/>
<polygon fill="black" stroke="black" points="204.484,-136.684 208.541,-146.471 211.473,-136.29 204.484,-136.684"/>
</g>
<!-- Utf -->
<g id="node26" class="node"><title>Utf</title>
<polygon fill="none" stroke="black" points="265.5,-146.5 265.5,-182.5 319.5,-182.5 319.5,-146.5 265.5,-146.5"/>
<text text-anchor="middle" x="292.5" y="-160.8" font-family="Times New Roman,serif" font-size="14.00">Utf</text>
</g>
<!-- String&#45;&gt;Utf -->
<g id="edge26" class="edge"><title>String&#45;&gt;Utf</title>
<path fill="none" stroke="black" d="M281.131,-109.687C282.826,-117.711 284.884,-127.453 286.781,-136.431"/>
<polygon fill="black" stroke="black" points="283.411,-137.411 288.902,-146.471 290.26,-135.964 283.411,-137.411"/>
</g>
<!-- Event -->
<g id="node11" class="node"><title>Event</title>
<polygon fill="none" stroke="black" points="602.5,-146.5 602.5,-182.5 656.5,-182.5 656.5,-146.5 602.5,-146.5"/>
<text text-anchor="middle" x="629.5" y="-160.8" font-family="Times New Roman,serif" font-size="14.00">Event</text>
</g>
<!-- WindowImpl&#45;&gt;Event -->
<g id="edge10" class="edge"><title>WindowImpl&#45;&gt;Event</title>
<path fill="none" stroke="black" d="M684.071,-109.687C675.05,-118.583 663.887,-129.591 654.012,-139.328"/>
<polygon fill="black" stroke="black" points="651.432,-136.958 646.769,-146.471 656.347,-141.942 651.432,-136.958"/>
</g>
<!-- Sleep -->
<g id="node12" class="node"><title>Sleep</title>
<polygon fill="none" stroke="black" points="674.5,-146.5 674.5,-182.5 728.5,-182.5 728.5,-146.5 674.5,-146.5"/>
<text text-anchor="middle" x="701.5" y="-160.8" font-family="Times New Roman,serif" font-size="14.00">Sleep</text>
</g>
<!-- WindowImpl&#45;&gt;Sleep -->
<g id="edge11" class="edge"><title>WindowImpl&#45;&gt;Sleep</title>
<path fill="none" stroke="black" d="M701.5,-109.687C701.5,-117.711 701.5,-127.453 701.5,-136.431"/>
<polygon fill="black" stroke="black" points="698,-136.471 701.5,-146.471 705,-136.471 698,-136.471"/>
</g>
<!-- WindowImplWin32 -->
<g id="node13" class="node"><title>WindowImplWin32</title>
<polygon fill="none" stroke="black" points="747,-146.5 747,-182.5 874,-182.5 874,-146.5 747,-146.5"/>
<text text-anchor="middle" x="810.5" y="-160.8" font-family="Times New Roman,serif" font-size="14.00">WindowImplWin32</text>
</g>
<!-- WindowImpl&#45;&gt;WindowImplWin32 -->
<g id="edge12" class="edge"><title>WindowImpl&#45;&gt;WindowImplWin32</title>
<path fill="none" stroke="black" d="M727.608,-109.506C742.063,-118.921 760.213,-130.745 775.843,-140.925"/>
<polygon fill="black" stroke="black" points="773.938,-143.861 784.227,-146.386 777.758,-137.996 773.938,-143.861"/>
</g>
<!-- Joystick -->
<g id="node14" class="node"><title>Joystick</title>
<polygon fill="none" stroke="black" points="460.5,-219.5 460.5,-255.5 522.5,-255.5 522.5,-219.5 460.5,-219.5"/>
<text text-anchor="middle" x="491.5" y="-233.8" font-family="Times New Roman,serif" font-size="14.00">Joystick</text>
</g>
<!-- Event&#45;&gt;Joystick -->
<g id="edge13" class="edge"><title>Event&#45;&gt;Joystick</title>
<path fill="none" stroke="black" d="M602.236,-179.527C582.077,-189.899 554.304,-204.188 531.616,-215.86"/>
<polygon fill="black" stroke="black" points="529.852,-212.832 522.561,-220.519 533.055,-219.056 529.852,-212.832"/>
</g>
<!-- Keyboard -->
<g id="node17" class="node"><title>Keyboard</title>
<polygon fill="none" stroke="black" points="552.5,-219.5 552.5,-255.5 624.5,-255.5 624.5,-219.5 552.5,-219.5"/>
<text text-anchor="middle" x="588.5" y="-233.8" font-family="Times New Roman,serif" font-size="14.00">Keyboard</text>
</g>
<!-- Event&#45;&gt;Keyboard -->
<g id="edge16" class="edge"><title>Event&#45;&gt;Keyboard</title>
<path fill="none" stroke="black" d="M619.575,-182.687C614.74,-191.059 608.825,-201.303 603.458,-210.597"/>
<polygon fill="black" stroke="black" points="600.303,-209.061 598.334,-219.471 606.365,-212.562 600.303,-209.061"/>
</g>
<!-- Mouse -->
<g id="node19" class="node"><title>Mouse</title>
<polygon fill="none" stroke="black" points="643,-219.5 643,-255.5 698,-255.5 698,-219.5 643,-219.5"/>
<text text-anchor="middle" x="670.5" y="-233.8" font-family="Times New Roman,serif" font-size="14.00">Mouse</text>
</g>
<!-- Event&#45;&gt;Mouse -->
<g id="edge18" class="edge"><title>Event&#45;&gt;Mouse</title>
<path fill="none" stroke="black" d="M639.425,-182.687C644.26,-191.059 650.175,-201.303 655.542,-210.597"/>
<polygon fill="black" stroke="black" points="652.635,-212.562 660.666,-219.471 658.697,-209.061 652.635,-212.562"/>
</g>
<!-- Sensor -->
<g id="node20" class="node"><title>Sensor</title>
<polygon fill="none" stroke="black" points="730.5,-219.5 730.5,-255.5 786.5,-255.5 786.5,-219.5 730.5,-219.5"/>
<text text-anchor="middle" x="758.5" y="-233.8" font-family="Times New Roman,serif" font-size="14.00">Sensor</text>
</g>
<!-- Event&#45;&gt;Sensor -->
<g id="edge20" class="edge"><title>Event&#45;&gt;Sensor</title>
<path fill="none" stroke="black" d="M656.543,-180.384C675.335,-190.727 700.619,-204.643 721.307,-216.029"/>
<polygon fill="black" stroke="black" points="719.705,-219.143 730.153,-220.898 723.08,-213.01 719.705,-219.143"/>
</g>
<!-- JoystickImpl -->
<g id="node15" class="node"><title>JoystickImpl</title>
<polygon fill="none" stroke="black" points="330.5,-292.5 330.5,-328.5 418.5,-328.5 418.5,-292.5 330.5,-292.5"/>
<text text-anchor="middle" x="374.5" y="-306.8" font-family="Times New Roman,serif" font-size="14.00">JoystickImpl</text>
</g>
<!-- Joystick&#45;&gt;JoystickImpl -->
<g id="edge14" class="edge"><title>Joystick&#45;&gt;JoystickImpl</title>
<path fill="none" stroke="black" d="M463.476,-255.506C447.96,-264.921 428.477,-276.745 411.701,-286.925"/>
<polygon fill="black" stroke="black" points="409.435,-284.206 402.701,-292.386 413.066,-290.191 409.435,-284.206"/>
</g>
<!-- JoystickManager -->
<g id="node16" class="node"><title>JoystickManager</title>
<polygon fill="none" stroke="black" points="436.5,-292.5 436.5,-328.5 546.5,-328.5 546.5,-292.5 436.5,-292.5"/>
<text text-anchor="middle" x="491.5" y="-306.8" font-family="Times New Roman,serif" font-size="14.00">JoystickManager</text>
</g>
<!-- Joystick&#45;&gt;JoystickManager -->
<g id="edge15" class="edge"><title>Joystick&#45;&gt;JoystickManager</title>
<path fill="none" stroke="black" d="M491.5,-255.687C491.5,-263.711 491.5,-273.453 491.5,-282.431"/>
<polygon fill="black" stroke="black" points="488,-282.471 491.5,-292.471 495,-282.471 488,-282.471"/>
</g>
<!-- InputImpl -->
<g id="node18" class="node"><title>InputImpl</title>
<polygon fill="none" stroke="black" points="565,-292.5 565,-328.5 636,-328.5 636,-292.5 565,-292.5"/>
<text text-anchor="middle" x="600.5" y="-306.8" font-family="Times New Roman,serif" font-size="14.00">InputImpl</text>
</g>
<!-- Keyboard&#45;&gt;InputImpl -->
<g id="edge17" class="edge"><title>Keyboard&#45;&gt;InputImpl</title>
<path fill="none" stroke="black" d="M591.405,-255.687C592.761,-263.711 594.407,-273.453 595.925,-282.431"/>
<polygon fill="black" stroke="black" points="592.504,-283.194 597.622,-292.471 599.406,-282.028 592.504,-283.194"/>
</g>
<!-- Mouse&#45;&gt;InputImpl -->
<g id="edge19" class="edge"><title>Mouse&#45;&gt;InputImpl</title>
<path fill="none" stroke="black" d="M653.555,-255.687C644.785,-264.583 633.932,-275.591 624.331,-285.328"/>
<polygon fill="black" stroke="black" points="621.817,-282.893 617.289,-292.471 626.802,-287.807 621.817,-282.893"/>
</g>
<!-- SensorImpl -->
<g id="node21" class="node"><title>SensorImpl</title>
<polygon fill="none" stroke="black" points="654,-292.5 654,-328.5 735,-328.5 735,-292.5 654,-292.5"/>
<text text-anchor="middle" x="694.5" y="-306.8" font-family="Times New Roman,serif" font-size="14.00">SensorImpl</text>
</g>
<!-- Sensor&#45;&gt;SensorImpl -->
<g id="edge21" class="edge"><title>Sensor&#45;&gt;SensorImpl</title>
<path fill="none" stroke="black" d="M743.007,-255.687C735.068,-264.495 725.261,-275.375 716.547,-285.042"/>
<polygon fill="black" stroke="black" points="713.946,-282.7 709.85,-292.471 719.145,-287.387 713.946,-282.7"/>
</g>
<!-- Vector3 -->
<g id="node22" class="node"><title>Vector3</title>
<polygon fill="none" stroke="black" points="753.5,-292.5 753.5,-328.5 815.5,-328.5 815.5,-292.5 753.5,-292.5"/>
<text text-anchor="middle" x="784.5" y="-306.8" font-family="Times New Roman,serif" font-size="14.00">Vector3</text>
</g>
<!-- Sensor&#45;&gt;Vector3 -->
<g id="edge22" class="edge"><title>Sensor&#45;&gt;Vector3</title>
<path fill="none" stroke="black" d="M764.794,-255.687C767.796,-263.885 771.455,-273.877 774.801,-283.015"/>
<polygon fill="black" stroke="black" points="771.539,-284.285 778.264,-292.471 778.112,-281.877 771.539,-284.285"/>
</g>
<!-- SensorManager -->
<g id="node23" class="node"><title>SensorManager</title>
<polygon fill="none" stroke="black" points="833.5,-292.5 833.5,-328.5 937.5,-328.5 937.5,-292.5 833.5,-292.5"/>
<text text-anchor="middle" x="885.5" y="-306.8" font-family="Times New Roman,serif" font-size="14.00">SensorManager</text>
</g>
<!-- Sensor&#45;&gt;SensorManager -->
<g id="edge23" class="edge"><title>Sensor&#45;&gt;SensorManager</title>
<path fill="none" stroke="black" d="M786.685,-254.257C804.097,-263.991 826.703,-276.629 845.898,-287.36"/>
<polygon fill="black" stroke="black" points="844.29,-290.471 854.726,-292.296 847.706,-284.361 844.29,-290.471"/>
</g>
<!-- Err -->
<g id="node25" class="node"><title>Err</title>
<polygon fill="none" stroke="black" points="13.5,-219.5 13.5,-255.5 67.5,-255.5 67.5,-219.5 13.5,-219.5"/>
<text text-anchor="middle" x="40.5" y="-233.8" font-family="Times New Roman,serif" font-size="14.00">Err</text>
</g>
<!-- CursorImpl&#45;&gt;Err -->
<g id="edge25" class="edge"><title>CursorImpl&#45;&gt;Err</title>
<path fill="none" stroke="black" d="M40.5,-182.687C40.5,-190.711 40.5,-200.453 40.5,-209.431"/>
<polygon fill="black" stroke="black" points="37.0001,-209.471 40.5,-219.471 44.0001,-209.471 37.0001,-209.471"/>
</g>
<!-- Mutex -->
<g id="node29" class="node"><title>Mutex</title>
<polygon fill="none" stroke="black" points="146.5,-219.5 146.5,-255.5 200.5,-255.5 200.5,-219.5 146.5,-219.5"/>
<text text-anchor="middle" x="173.5" y="-233.8" font-family="Times New Roman,serif" font-size="14.00">Mutex</text>
</g>
<!-- ClockImpl&#45;&gt;Mutex -->
<g id="edge29" class="edge"><title>ClockImpl&#45;&gt;Mutex</title>
<path fill="none" stroke="black" d="M200.785,-182.687C196.585,-190.972 191.455,-201.09 186.781,-210.307"/>
<polygon fill="black" stroke="black" points="183.535,-208.969 182.134,-219.471 189.778,-212.135 183.535,-208.969"/>
</g>
<!-- Lock -->
<g id="node30" class="node"><title>Lock</title>
<polygon fill="none" stroke="black" points="218.5,-219.5 218.5,-255.5 272.5,-255.5 272.5,-219.5 218.5,-219.5"/>
<text text-anchor="middle" x="245.5" y="-233.8" font-family="Times New Roman,serif" font-size="14.00">Lock</text>
</g>
<!-- ClockImpl&#45;&gt;Lock -->
<g id="edge30" class="edge"><title>ClockImpl&#45;&gt;Lock</title>
<path fill="none" stroke="black" d="M218.215,-182.687C222.415,-190.972 227.545,-201.09 232.219,-210.307"/>
<polygon fill="black" stroke="black" points="229.222,-212.135 236.866,-219.471 235.465,-208.969 229.222,-212.135"/>
</g>
<!-- MutexImpl -->
<g id="node31" class="node"><title>MutexImpl</title>
<polygon fill="none" stroke="black" points="135,-292.5 135,-328.5 212,-328.5 212,-292.5 135,-292.5"/>
<text text-anchor="middle" x="173.5" y="-306.8" font-family="Times New Roman,serif" font-size="14.00">MutexImpl</text>
</g>
<!-- Mutex&#45;&gt;MutexImpl -->
<g id="edge31" class="edge"><title>Mutex&#45;&gt;MutexImpl</title>
<path fill="none" stroke="black" d="M173.5,-255.687C173.5,-263.711 173.5,-273.453 173.5,-282.431"/>
<polygon fill="black" stroke="black" points="170,-282.471 173.5,-292.471 177,-282.471 170,-282.471"/>
</g>
</g>
</svg>
